<?xml version="1.0" encoding="UTF-8" standalone="no"?>
<!-- Created with Inkscape (http://www.inkscape.org/) -->

<svg
   width="512.0px"
   height="512.0px"
   viewBox="0 0 512.0 512.0"
   version="1.1"
   id="SVGRoot"
   sodipodi:docname="amazon_web_services_logo.svg"
   xml:space="preserve"
   inkscape:version="1.2.2 (b0a8486541, 2022-12-01)"
   xmlns:inkscape="http://www.inkscape.org/namespaces/inkscape"
   xmlns:sodipodi="http://sodipodi.sourceforge.net/DTD/sodipodi-0.dtd"
   xmlns="http://www.w3.org/2000/svg"
   xmlns:svg="http://www.w3.org/2000/svg"><sodipodi:namedview
     id="namedview14"
     pagecolor="#ffffff"
     bordercolor="#000000"
     borderopacity="0.25"
     inkscape:showpageshadow="2"
     inkscape:pageopacity="0.0"
     inkscape:pagecheckerboard="0"
     inkscape:deskcolor="#d1d1d1"
     inkscape:document-units="px"
     showgrid="true"
     inkscape:zoom="0.79394531"
     inkscape:cx="324.95941"
     inkscape:cy="319.29151"
     inkscape:window-width="1920"
     inkscape:window-height="1016"
     inkscape:window-x="0"
     inkscape:window-y="0"
     inkscape:window-maximized="1"
     inkscape:current-layer="g1967"><inkscape:grid
       type="xygrid"
       id="grid20" /></sodipodi:namedview><defs
     id="defs9">
	

	
	
</defs><g
     inkscape:label="Camada 1"
     inkscape:groupmode="layer"
     id="layer1"><g
       style="image-rendering:optimizeQuality;shape-rendering:geometricPrecision;text-rendering:geometricPrecision"
       id="g1967"
       transform="matrix(0.81697448,0,0,0.81697448,16.966868,204.8672)"><path
         class="st0"
         d="m 173.0152,17.752306 c 0,6.74358 0.72903,12.211347 2.00485,16.221043 1.45807,4.009696 3.28066,8.38391 5.83228,13.122642 0.9113,1.458071 1.27581,2.916142 1.27581,4.191955 0,1.822589 -1.09355,3.645178 -3.46292,5.467767 l -11.48231,7.654874 c -1.64033,1.093554 -3.28066,1.64033 -4.73873,1.64033 -1.82259,0 -3.64518,-0.911294 -5.46777,-2.551624 -2.55162,-2.733884 -4.73873,-5.650027 -6.56132,-8.566169 -1.82259,-3.098402 -3.64517,-6.561321 -5.65002,-10.753276 -14.2162,16.76782 -32.07757,25.15173 -53.584122,25.15173 -15.309749,0 -27.521096,-4.374214 -36.451782,-13.122642 -8.930687,-8.748427 -13.48716,-20.412998 -13.48716,-34.99371 0,-15.4920078 5.467768,-28.0678726 16.585561,-37.545336 11.117794,-9.477463 25.880765,-14.216195 44.653433,-14.216195 6.1968,0 12.57586,0.546777 19.31944,1.458071 6.74358,0.911295 13.66942,2.369366 20.95978,4.009696 v -13.3049 c 0,-13.851677 -2.91614,-23.511399 -8.56617,-29.161426 -5.83228,-5.650026 -15.67427,-8.38391 -29.7082,-8.38391 -6.379064,0 -12.940385,0.729036 -19.683964,2.369366 -6.74358,1.640331 -13.304901,3.645179 -19.683962,6.196803 -2.916143,1.275813 -5.10325,2.004848 -6.379062,2.369366 -1.275813,0.364518 -2.187107,0.546777 -2.916143,0.546777 -2.551625,0 -3.827437,-1.822589 -3.827437,-5.650026 v -8.930687 c 0,-2.916143 0.364518,-5.103249 1.275812,-6.379062 0.911295,-1.275812 2.551625,-2.551625 5.10325,-3.827437 6.379062,-3.28066 14.033936,-6.014544 22.964623,-8.201651 8.930686,-2.369366 18.408149,-3.462915 28.432393,-3.462915 21.68881,0 37.54533,4.920986 47.75183,14.762968 10.02424,9.841981 15.12749,24.787211 15.12749,44.835691 V 17.752306 Z M 99.018081,45.455661 c 6.014539,0 12.211349,-1.093554 18.772669,-3.280661 6.56132,-2.187107 12.3936,-6.196803 17.31459,-11.66457 2.91615,-3.462919 5.10325,-7.290356 6.19681,-11.66457 1.09355,-4.374214 1.82259,-9.6597225 1.82259,-15.8565255 v -7.6548742 c -5.28551,-1.2758124 -10.93554,-2.3693658 -16.76782,-3.0984015 -5.83229,-0.7290356 -11.48231,-1.0935534 -17.13234,-1.0935534 -12.211347,0 -21.142034,2.3693658 -27.156578,7.2903564 -6.014544,4.9209905 -8.930686,11.8468292 -8.930686,20.9597742 0,8.566169 2.187106,14.945231 6.743579,19.319445 4.374214,4.556473 10.753276,6.74358 19.137186,6.74358 z M 245.37199,65.139623 c -3.28066,0 -5.46777,-0.546777 -6.92584,-1.822589 -1.45807,-1.093554 -2.73389,-3.645178 -3.82744,-7.108098 L 191.78787,-84.677201 c -1.09356,-3.645178 -1.64033,-6.014544 -1.64033,-7.290357 0,-2.916142 1.45807,-4.556472 4.37421,-4.556472 h 17.86137 c 3.46292,0 5.83229,0.546776 7.1081,1.822589 1.45807,1.093553 2.55163,3.645178 3.64518,7.108097 l 30.6195,120.655399 28.43239,-120.655399 c 0.91129,-3.645178 2.00484,-6.014544 3.46291,-7.108097 1.45808,-1.093554 4.0097,-1.822589 7.29036,-1.822589 h 14.58071 c 3.46292,0 5.83229,0.546776 7.29036,1.822589 1.45807,1.093553 2.73388,3.645178 3.46292,7.108097 l 28.79691,122.11347 31.53079,-122.11347 c 1.09355,-3.645178 2.36936,-6.014544 3.64518,-7.108097 1.45807,-1.093554 3.82743,-1.822589 7.10809,-1.822589 h 16.95008 c 2.91615,0 4.55648,1.458071 4.55648,4.556472 0,0.911295 -0.18226,1.82259 -0.36452,2.916143 -0.18226,1.093553 -0.54678,2.551625 -1.27581,4.556473 l -43.9244,140.886137 c -1.09356,3.645178 -2.36937,6.014544 -3.82744,7.108098 -1.45807,1.093553 -3.82744,1.822589 -6.92584,1.822589 h -15.67426 c -3.46292,0 -5.83229,-0.546777 -7.29036,-1.822589 -1.45807,-1.275813 -2.73388,-3.645179 -3.46292,-7.290357 L 299.8674,-61.348061 271.79953,56.026677 c -0.9113,3.645179 -2.00485,6.014544 -3.46292,7.290357 -1.45807,1.275812 -4.0097,1.822589 -7.29036,1.822589 z m 234.20269,4.92099 c -9.47746,0 -18.95492,-1.093553 -28.06787,-3.28066 -9.11294,-2.187107 -16.22104,-4.556473 -20.95977,-7.290356 -2.91614,-1.640331 -4.92099,-3.46292 -5.65003,-5.10325 -0.72903,-1.64033 -1.09355,-3.462919 -1.09355,-5.103249 v -9.295205 c 0,-3.827437 1.45807,-5.650026 4.19195,-5.650026 1.09356,0 2.18711,0.182259 3.28066,0.546777 1.09356,0.364518 2.73389,1.093553 4.55648,1.822589 6.1968,2.733884 12.94038,4.92099 20.04848,6.379062 7.29035,1.458071 14.39845,2.187107 21.68881,2.187107 11.48231,0 20.41299,-2.004848 26.6098,-6.014544 6.1968,-4.009696 9.47746,-9.841982 9.47746,-17.314597 0,-5.103249 -1.64033,-9.295204 -4.92099,-12.7581235 -3.28066,-3.4629193 -9.47746,-6.5613208 -18.40815,-9.47746335 L 463.90042,-8.4929768 c -13.3049,-4.1919552 -23.14688,-10.3887582 -29.16143,-18.5904092 -6.01454,-8.019392 -9.11294,-16.950078 -9.11294,-26.427542 0,-7.654874 1.64033,-14.398453 4.92099,-20.230739 3.28066,-5.832285 7.65487,-10.935534 13.12264,-14.94523 5.46777,-4.191955 11.66457,-7.290357 18.95493,-9.477464 7.29035,-2.187109 14.94523,-3.098399 22.96462,-3.098399 4.00969,0 8.20165,0.18226 12.21135,0.72903 4.19195,0.54678 8.01939,1.275816 11.84683,2.004852 3.64517,0.911294 7.10809,1.822589 10.38875,2.916142 3.28066,1.093554 5.83229,2.187107 7.65488,3.280661 2.55162,1.458071 4.37421,2.916142 5.46776,4.556472 1.09356,1.458072 1.64033,3.46292 1.64033,6.014544 v 8.566169 c 0,3.827437 -1.45807,5.832285 -4.19195,5.832285 -1.45807,0 -3.82744,-0.729035 -6.92584,-2.187107 -10.38876,-4.738731 -22.05333,-7.108097 -34.99371,-7.108097 -10.38876,0 -18.59041,1.64033 -24.24043,5.103249 -5.65003,3.46292 -8.56617,8.748428 -8.56617,16.221043 0,5.10325 1.82259,9.477464 5.46776,12.940383 3.64518,3.462919 10.38876,6.925839 20.04848,10.02424 l 25.88077,8.201651 c 13.12264,4.191955 22.6001,10.02424 28.25013,17.4968553 5.65003,7.47261531 8.38391,16.0387841 8.38391,25.5162477 0,7.837133 -1.64033,14.94523 -4.73873,21.142033 -3.28066,6.196803 -7.65488,11.66457 -13.3049,16.038784 -5.65003,4.556473 -12.39361,7.837133 -20.23074,10.206499 -8.20165,2.551625 -16.76782,3.827437 -26.06303,3.827437 z"
         id="path3698"
         style="stroke-width:1.82259;fill:#ffffff" /><g
         id="g3704"
         transform="matrix(1.8225891,0,0,1.8225891,15.5435,-103.26761)">
		<path
   class="st1"
   d="M 273.5,143.7 C 240.6,168 192.8,180.9 151.7,180.9 94.1,180.9 42.2,159.6 3,124.2 c -3.1,-2.8 -0.3,-6.6 3.4,-4.4 42.4,24.6 94.7,39.5 148.8,39.5 36.5,0 76.6,-7.6 113.5,-23.2 5.5,-2.5 10.2,3.6 4.8,7.6 z"
   id="path3700" />
		<path
   class="st1"
   d="m 287.2,128.1 c -4.2,-5.4 -27.8,-2.6 -38.5,-1.3 -3.2,0.4 -3.7,-2.4 -0.8,-4.5 18.8,-13.2 49.7,-9.4 53.3,-5 3.6,4.5 -1,35.4 -18.6,50.2 -2.7,2.3 -5.3,1.1 -4.1,-1.9 4,-9.9 12.9,-32.2 8.7,-37.5 z"
   id="path3702" />
	</g></g></g><style
     id="style1737">.st0{fill:#820ad1}</style><style
     id="style1953">.st0{fill:#e77817}</style><style
     type="text/css"
     id="style2">
	.st0{fill:#EA1D25;}
</style><style
     type="text/css"
     id="style2-3">
	.st0{fill:#EA1D25;}
</style><style
     id="style3059">
		.s0 { fill: #ec0000 } 
	</style><style
     id="style3187">
		.s0 { fill: #ec0000 } 
	</style><style
     type="text/css"
     id="style3591">
	.st0{fill:#252F3E;}
	.st1{fill-rule:evenodd;clip-rule:evenodd;fill:#FF9900;}
</style><style
     type="text/css"
     id="style3696">
	.st0{fill:#252F3E;}
	.st1{fill-rule:evenodd;clip-rule:evenodd;fill:#FF9900;}
</style></svg>
