<?xml version="1.0" encoding="UTF-8" standalone="no"?>
<!-- Created with Inkscape (http://www.inkscape.org/) -->

<svg
   width="512.0px"
   height="512.0px"
   viewBox="0 0 512.0 512.0"
   version="1.1"
   id="SVGRoot"
   sodipodi:docname="amazon_prime_video_logo.svg"
   xml:space="preserve"
   inkscape:version="1.2.2 (b0a8486541, 2022-12-01)"
   xmlns:inkscape="http://www.inkscape.org/namespaces/inkscape"
   xmlns:sodipodi="http://sodipodi.sourceforge.net/DTD/sodipodi-0.dtd"
   xmlns="http://www.w3.org/2000/svg"
   xmlns:svg="http://www.w3.org/2000/svg"><sodipodi:namedview
     id="namedview14"
     pagecolor="#ffffff"
     bordercolor="#000000"
     borderopacity="0.25"
     inkscape:showpageshadow="2"
     inkscape:pageopacity="0.0"
     inkscape:pagecheckerboard="0"
     inkscape:deskcolor="#d1d1d1"
     inkscape:document-units="px"
     showgrid="true"
     inkscape:zoom="0.99276681"
     inkscape:cx="256.35426"
     inkscape:cy="243.25954"
     inkscape:window-width="1920"
     inkscape:window-height="1016"
     inkscape:window-x="0"
     inkscape:window-y="0"
     inkscape:window-maximized="1"
     inkscape:current-layer="layer1"><inkscape:grid
       type="xygrid"
       id="grid20" /></sodipodi:namedview><defs
     id="defs9"><polygon
   id="path-1"
   points="0 0.1836 16.6437 0.1836 16.6437 18.6676 0 18.6676" /><polygon
   id="path-3"
   points="0.2321 0.9504 14.0161 0.9504 14.0161 15 0.2321 15" /><polygon
   id="path-5"
   points="0.5539 0.9504 13.8259 0.9504 13.8259 15 0.5539 15" /><polygon
   id="path-7"
   points="0.7995 0.6253 9.5125 0.6253 9.5125 18 0.7995 18" /><polygon
   id="path-9"
   points="0.2146 0.9504 13.4856 0.9504 13.4856 15 0.2146 15" /><polygon
   id="path-11"
   points="0.1589 0.9502 12.2169 0.9502 12.2169 15 0.1589 15" /><polygon
   id="path-13"
   points="0.5285 0.6253 9.2415 0.6253 9.2415 18 0.5285 18" /><polygon
   id="path-15"
   points="0.6993 0.9504 14.4843 0.9504 14.4843 15 0.6993 15" />
	

		
		
		
		
		
		
		
		
		
		
		
		
		
		
		
		
	</defs><g
     inkscape:label="Camada 1"
     inkscape:groupmode="layer"
     id="layer1"><g
       id="g973"><path
         style="fill:#d1effa;stroke-width:0.907273"
         d="m 250.55637,315.65038 v -0.36292 c 0.36291,-0.45363 0.99799,-0.72581 1.54235,-0.63509 2.63111,-0.0907 5.17147,-0.0907 7.80256,0 0.54436,0 1.17944,0.18146 1.54235,0.63509 v 0.36292 z"
         id="path843" /><g
         id="g935"
         transform="matrix(1.4839167,0,0,1.4839167,-143.23174,-124.64132)"><path
           style="fill:#00a8e1;stroke-width:0.611404"
           d="m 272.98514,383.14234 c -2.44561,-0.0611 -4.89123,-0.0611 -7.33684,0 -3.36272,-0.18342 -6.72545,-0.3057 -10.08817,-0.55026 -8.92649,-0.67254 -17.79185,-2.01763 -26.47379,-4.03527 -30.01993,-6.97 -56.37144,-20.97115 -79.36023,-41.3309 -2.13991,-1.89535 -4.15754,-3.85185 -6.23632,-5.80834 -0.48912,-0.42798 -0.9171,-1.03938 -1.16166,-1.65079 -0.36685,-0.85596 -0.18342,-1.77307 0.42798,-2.44561 0.6114,-0.67255 1.58965,-0.91711 2.44562,-0.55027 0.55026,0.24456 1.10052,0.48913 1.58965,0.79483 21.9494,13.57316 45.91643,23.47791 71.04513,29.34739 8.43737,1.95649 16.93589,3.485 25.49554,4.58553 12.28922,1.5285 24.70072,2.07877 37.05108,1.65079 6.6643,-0.18343 13.26747,-0.79483 19.87063,-1.65079 15.40738,-1.9565 30.63134,-5.4415 45.36617,-10.33273 7.76483,-2.5679 15.34624,-5.50264 22.74423,-8.9265 1.10052,-0.6114 2.44561,-0.79482 3.66842,-0.48912 2.01763,0.48912 3.24044,2.5679 2.75132,4.58553 -0.0611,0.24456 -0.18342,0.55026 -0.3057,0.79482 -0.48913,0.91711 -1.16167,1.71193 -2.01764,2.32334 -7.03114,5.50263 -14.61255,10.33272 -22.62194,14.36799 -15.10168,7.64255 -31.24274,13.08404 -47.87293,16.2022 -9.59904,1.71193 -19.25922,2.75132 -28.98055,3.11816 z"
           id="path845" /><path
           style="fill:#00a8e1;stroke-width:0.611404"
           d="m 378.08548,323.53046 c 4.03526,0.12228 8.00939,0.36684 11.92237,1.40623 1.10053,0.3057 2.13992,0.67255 3.1793,1.16167 1.40623,0.55026 2.32334,1.89535 2.50676,3.36272 0.24456,1.71193 0.3057,3.485 0.18342,5.25807 -0.79482,10.45501 -4.03526,20.54318 -9.41562,29.53081 -1.95649,3.24044 -4.34097,6.17518 -7.09228,8.74308 -0.55027,0.55026 -1.22281,0.97825 -1.9565,1.22281 -1.16166,0.3057 -1.89535,-0.30571 -1.95649,-1.46737 0.0611,-0.61141 0.18342,-1.22281 0.42798,-1.83421 2.13992,-5.7472 4.21869,-11.43326 5.86948,-17.36388 0.97825,-3.24044 1.65079,-6.54202 2.07878,-9.90474 0.12228,-1.22281 0.18342,-2.44561 0.0611,-3.66842 -0.0611,-2.07878 -1.40623,-3.85185 -3.42387,-4.46325 -1.89535,-0.61141 -3.85184,-0.97825 -5.86947,-1.10053 -5.62492,-0.24456 -11.24984,0 -16.81361,0.73369 l -7.39799,0.9171 c -0.79482,0.0611 -1.52851,0 -1.95649,-0.73368 -0.42798,-0.73369 -0.24456,-1.46737 0.18342,-2.20106 0.48912,-0.67254 1.10053,-1.28394 1.83421,-1.71193 4.52439,-3.24044 9.59904,-5.19693 14.9794,-6.48088 4.15754,-0.85596 8.37623,-1.28395 12.65606,-1.40623 z"
           id="path853" /></g><g
         id="g952"
         transform="matrix(1.4839167,0,0,1.4839167,43.054224,-145.67845)"><path
           style="fill:#00a8e1;stroke-width:0.611404"
           d="m 182.43622,172.53303 c 1.52851,-0.91711 3.11816,-1.89535 4.76895,-2.75132 4.27983,-2.20105 9.04878,-3.30158 13.87887,-3.05702 3.48501,0.18342 6.66431,1.16167 9.10992,3.72957 2.32334,2.38447 3.1793,5.31921 3.42386,8.49851 0.0611,0.67254 0.0611,1.34509 0.0611,2.07877 v 31.67073 c 0,2.75131 -0.36684,3.11816 -3.11816,3.11816 h -7.45912 c -0.48913,0 -0.97825,0 -1.46737,-0.0611 -0.73369,-0.0611 -1.34509,-0.67255 -1.46737,-1.40623 -0.12228,-0.67255 -0.12228,-1.34509 -0.12228,-2.01764 v -28.308 c 0.0611,-1.16166 -0.0611,-2.26219 -0.36685,-3.36272 -0.48912,-1.89535 -2.20105,-3.24044 -4.15754,-3.36272 -3.60729,-0.24456 -7.21457,0.48912 -10.51615,2.01763 -0.48912,0.12228 -0.79482,0.61141 -0.73368,1.10053 v 32.15985 c 0,0.6114 0,1.16166 -0.12229,1.77307 0,0.85596 -0.67254,1.46737 -1.52851,1.46737 0,0 0,0 0,0 -0.9171,0.0611 -1.83421,0.0611 -2.81245,0.0611 h -6.48088 c -2.2622,0 -2.75132,-0.55027 -2.75132,-2.81246 V 184.1497 c 0,-1.03938 -0.0611,-2.13991 -0.3057,-3.1793 -0.42799,-2.07877 -2.20106,-3.54614 -4.27983,-3.66842 -3.66843,-0.24456 -7.39799,0.48912 -10.69957,2.07877 -0.48912,0.12228 -0.79483,0.67255 -0.67254,1.16167 v 32.58783 c 0,2.26219 -0.48913,2.75132 -2.75132,2.75132 h -8.19281 c -2.13992,0 -2.69018,-0.61141 -2.69018,-2.69018 v -42.43143 c 0,-0.48913 0.0611,-0.97825 0.18342,-1.46737 0.24456,-0.73369 0.97825,-1.16167 1.71193,-1.16167 h 7.64255 c 1.10053,0 1.77307,0.67255 2.13991,1.71193 0.3057,0.85597 0.48913,1.65079 0.79483,2.5679 0.6114,0 0.97824,-0.42798 1.40623,-0.67255 3.36272,-2.07877 6.90886,-3.85184 10.88299,-4.58553 3.05702,-0.6114 6.11404,-0.6114 9.17106,0 2.87359,0.61141 5.44149,2.32334 7.09228,4.76896 0.12228,0.18342 0.24456,0.3057 0.36684,0.42798 -0.0611,0.0611 0,0.0611 0.0611,0.18342 z"
           id="path847" /><path
           style="fill:#00a8e1;stroke-width:0.611404"
           d="m 92.070724,174.85636 c 0.427983,-0.12228 0.794825,-0.36684 1.039387,-0.73368 1.100527,-1.10053 2.262195,-2.13991 3.485002,-3.11816 3.179301,-2.44562 7.153427,-3.66842 11.127547,-3.36272 1.58965,0.0611 2.13992,0.55026 2.2622,2.07877 0.12228,2.07877 0.0611,4.21869 0.0611,6.29746 0.0611,0.85597 0,1.65079 -0.12228,2.50676 -0.24456,1.10052 -0.67255,1.52851 -1.77307,1.65079 -0.85597,0.0611 -1.65079,0 -2.50676,-0.0611 -4.0964,-0.36684 -8.07053,0.42798 -11.922375,1.71193 -0.855966,0.3057 -0.855966,0.9171 -0.855966,1.58965 v 29.34739 c 0,0.55026 0,1.03938 -0.06114,1.58965 -0.06114,0.79482 -0.672544,1.40623 -1.467369,1.40623 -0.427983,0.0611 -0.917106,0.0611 -1.345089,0.0611 H 82.0437 c -0.427983,0 -0.917106,0 -1.345089,-0.0611 -0.794825,-0.0611 -1.406229,-0.73369 -1.467369,-1.52851 -0.06114,-0.48913 -0.06114,-0.97825 -0.06114,-1.46737 v -41.57547 c 0,-2.81246 0.305702,-3.11816 3.11816,-3.11816 h 5.869477 c 1.58965,0 2.323335,0.55026 2.751318,2.07877 0.427983,1.52851 0.794825,3.05702 1.161667,4.70781 z"
           id="path851" /><path
           style="fill:#00a8e1;stroke-width:0.611404"
           d="m 115.91548,191.85339 v -21.70484 c 0.0611,-1.46737 0.6114,-2.01763 2.07877,-2.07877 3.1793,-0.0611 6.3586,-0.0611 9.5379,0 1.40623,0 1.83421,0.42798 1.95649,1.83421 0.0611,0.55027 0.0611,1.03939 0.0611,1.58965 v 40.7195 c 0,0.67255 -0.0611,1.34509 -0.12228,2.01764 -0.0611,0.79482 -0.67254,1.34509 -1.46737,1.40623 -0.36684,0.0611 -0.67254,0.0611 -1.03938,0.0611 h -8.49852 c -0.3057,0 -0.55026,0 -0.85596,-0.0611 -0.85597,-0.0611 -1.58965,-0.73369 -1.65079,-1.58965 -0.0611,-0.48913 -0.0611,-0.97825 -0.0611,-1.46737 0.0611,-6.78659 0.0611,-13.75659 0.0611,-20.7266 z"
           id="path857" /><path
           style="fill:#00a8e1;stroke-width:0.611404"
           d="m 123.00776,146.18152 c 0.97825,-0.0611 1.9565,0.12228 2.8736,0.42798 3.30158,1.10053 5.01351,3.97413 4.70781,7.70369 -0.24456,3.1793 -2.62904,5.7472 -5.80834,6.23632 -1.34508,0.24456 -2.75131,0.24456 -4.0964,0 -3.485,-0.67254 -6.0529,-3.24044 -5.80834,-7.64255 0.36684,-4.34096 3.24044,-6.72544 8.13167,-6.72544 z"
           id="path859" /><path
           style="fill:#00a8e1;stroke-width:0.611404"
           d="m 70.121324,186.83988 c -0.244562,-3.1793 -1.100527,-6.29746 -2.384476,-9.17106 -2.506756,-5.25807 -6.3586,-9.10992 -12.228078,-10.455 -6.725443,-1.46737 -12.778342,0 -18.280977,4.0964 -0.366843,0.36684 -0.794825,0.67255 -1.283948,0.91711 -0.122281,-0.0611 -0.244562,-0.12228 -0.244562,-0.18342 -0.183421,-0.61141 -0.305702,-1.22281 -0.489123,-1.83422 -0.489123,-1.52851 -1.100527,-2.07877 -2.751318,-2.07877 -1.834212,0 -3.729564,0.0611 -5.563775,0 -1.406229,-0.0611 -2.690178,0.12228 -3.668424,1.22281 0,21.39914 0,42.85941 0.06114,64.19741 0.794825,1.28395 2.017633,1.52851 3.423862,1.46737 2.201054,-0.0611 4.402109,0 6.603163,0 3.851844,0 3.851844,0 3.851844,-3.7907 v -17.42502 c 0,-0.42798 -0.183421,-0.9171 0.244562,-1.28394 3.05702,2.38447 6.786583,3.85184 10.638428,4.21868 5.380355,0.55027 10.271586,-0.79482 14.367992,-4.46325 2.995879,-2.75131 5.196934,-6.29746 6.358601,-10.21044 1.650791,-5.01351 1.773071,-10.08817 1.345089,-15.22396 z M 55.50877,199.49594 c -0.427983,1.89535 -1.406229,3.60729 -2.812458,4.89123 -1.58965,1.34509 -3.546143,2.13992 -5.624916,2.13992 -3.11816,0.18342 -6.17518,-0.48913 -8.926497,-1.9565 -0.672545,-0.3057 -1.100527,-0.97824 -1.039387,-1.71193 v -11.06641 c 0,-3.66842 0.06114,-7.33684 0,-11.00527 -0.06114,-0.85596 0.427983,-1.58965 1.222808,-1.89535 3.362721,-1.58965 6.847724,-2.32333 10.516147,-1.58965 2.567897,0.36684 4.768951,2.01763 5.808337,4.40211 0.917106,1.95649 1.46737,4.0964 1.589651,6.23632 0.366842,3.91298 0.366842,7.82597 -0.733685,11.55553 z"
           id="path863" /><path
           style="fill:#00a8e1;stroke-width:0.611404"
           d="m 235.99521,195.82752 c 4.58553,0.85596 9.29334,0.9171 13.87887,0.18342 2.69017,-0.36684 5.25807,-1.16167 7.64255,-2.44562 2.75131,-1.58965 4.76895,-3.7907 5.62491,-6.84772 2.13991,-7.70369 -1.16167,-15.46852 -9.17106,-18.34212 -3.91298,-1.28395 -8.07053,-1.71193 -12.16694,-1.16166 -9.66018,1.10052 -15.95764,6.41974 -18.83124,15.65194 -2.01763,6.29746 -1.77307,12.7172 -0.12228,19.0758 2.13992,8.13167 7.52027,12.96176 15.65194,14.67369 4.64667,1.03939 9.35448,0.85597 14.00115,0.12228 2.44562,-0.42798 4.89123,-1.03938 7.21457,-1.95649 1.40623,-0.55026 2.13991,-1.40623 2.07877,-2.99588 -0.0611,-1.46737 0,-2.99588 0,-4.52439 0,-1.83421 -0.73368,-2.38447 -2.50675,-1.95649 -1.77307,0.42798 -3.48501,0.79482 -5.25808,1.16167 -3.7907,0.79482 -7.70369,0.79482 -11.49439,0.12228 -5.19693,-1.03939 -8.55966,-5.50264 -8.25395,-11.00527 0.55026,0.0611 1.16166,0.12228 1.71193,0.24456 z m -1.52851,-9.35448 c 0.18342,-1.46737 0.6114,-2.8736 1.16166,-4.21869 1.83422,-4.46325 5.68606,-5.99176 9.59905,-5.7472 1.10052,0.0611 2.20105,0.30571 3.24044,0.73369 1.58965,0.67254 2.62903,2.13991 2.81246,3.85184 0.18342,1.03939 0.12228,2.13992 -0.18343,3.1793 -0.73368,2.20106 -2.50675,3.11816 -4.64667,3.54615 -1.28394,0.3057 -2.62903,0.42798 -3.97412,0.3057 -2.38448,0 -4.83009,-0.18342 -7.21457,-0.55026 -0.9171,-0.12229 -0.9171,-0.12229 -0.79482,-1.10053 z"
           id="path871" /></g><g
         id="g944"
         transform="matrix(1.4839167,0,0,1.4839167,-335.81911,-1.2386422)"
         style="fill:#ffffff"><path
           style="fill:#ffffff;stroke-width:0.611404"
           d="m 309.18026,202.98094 c 0.36684,-1.2228 0.73368,-2.38447 1.10052,-3.60728 2.81246,-9.47676 5.62492,-18.89238 8.43738,-28.36914 l 0.36684,-1.10053 c 0.3057,-1.10052 1.34509,-1.77307 2.44562,-1.77307 h 9.29334 c 2.32333,0 2.81245,0.67255 2.01763,2.8736 l -3.66843,9.72132 c -4.0964,10.63843 -8.19281,21.338 -12.28921,31.97643 -0.12229,0.36684 -0.30571,0.73368 -0.42799,1.10052 -0.42798,1.28395 -1.71193,2.13992 -3.05702,2.01764 -2.69017,-0.0611 -5.38035,-0.0611 -8.07053,0 -1.89535,0.0611 -2.99588,-0.79483 -3.66842,-2.50676 -1.52851,-4.03527 -3.11816,-8.13167 -4.64667,-12.16694 -3.66843,-9.59904 -7.39799,-19.19808 -11.06641,-28.85826 -0.36684,-0.73369 -0.61141,-1.58965 -0.79483,-2.38448 -0.18342,-1.22281 0.24456,-1.83421 1.46737,-1.83421 3.485,-0.0611 6.97001,0 10.39387,0 1.46737,0 2.13991,0.97825 2.50675,2.2622 0.67255,2.32333 1.34509,4.70781 2.07878,7.03114 2.50675,8.49851 4.95237,17.05817 7.45913,25.55668 -0.0611,0.0611 0,0.0611 0.12228,0.0611 z"
           id="path849" /><path
           style="fill:#ffffff;stroke-width:0.611404"
           d="m 352.46765,191.97567 v 22.01055 c -0.12228,1.2228 -0.67254,1.77307 -1.89535,1.83421 -3.30158,0.0611 -6.54202,0.0611 -9.8436,0 -1.22281,0 -1.77307,-0.61141 -1.89535,-1.77307 -0.0611,-0.36685 -0.0611,-0.79483 -0.0611,-1.16167 v -42.30915 c 0.0611,-1.89536 0.55026,-2.44562 2.44561,-2.44562 h 8.80422 c 1.89535,0 2.44561,0.55026 2.44561,2.44562 z"
           id="path855" /><path
           style="fill:#ffffff;stroke-width:0.611404"
           d="m 345.68107,146.18152 c 1.22281,-0.12228 2.44562,0.12228 3.60728,0.6114 2.38448,0.91711 4.03527,3.11816 4.15755,5.68606 0.48912,5.56378 -3.24044,8.37623 -8.19281,8.25395 -0.67255,0 -1.34509,-0.12228 -2.01764,-0.24456 -3.7907,-0.9171 -5.74719,-3.85184 -5.38035,-8.07053 0.3057,-3.36272 2.93474,-5.86948 6.54202,-6.17518 0.42798,-0.0611 0.85597,-0.12228 1.28395,-0.0611 z"
           id="path861" /><path
           style="fill:#ffffff;stroke-width:0.611404"
           d="m 512.41092,196.37778 c 0,0 0,-0.0611 0,0 0,-0.0611 0,-0.0611 0,0 z"
           id="path865" /><path
           style="fill:#ffffff;stroke-width:0.611404"
           d="m 512.47206,188.18497 v 0.24456 c -0.24456,-0.24456 -0.36684,-0.6114 -0.24456,-0.9171 v -0.48913 c 0,0 0,-0.0611 0.0611,-0.0611 h -0.0611 v -0.6114 h 0.12228 c 0,-0.0611 -0.0611,-0.0611 -0.0611,-0.12228 -0.12228,-1.16167 -0.36684,-2.32334 -0.67255,-3.42386 -2.26219,-8.07054 -7.33684,-13.38975 -15.5908,-15.46852 -3.85184,-0.91711 -7.76483,-1.03939 -11.67781,-0.42799 -8.25395,1.22281 -14.18457,5.62492 -17.05817,13.45089 -2.81246,7.45913 -2.75132,15.65194 0.0611,23.11107 2.44562,6.78658 7.33685,11.06641 14.36799,12.83948 3.72957,0.91711 7.64255,1.16167 11.4944,0.6114 12.83948,-1.52851 18.15869,-11.24983 19.01466,-19.6872 h -0.0611 v -0.85597 c -0.0611,-0.36684 -0.12228,-0.67254 0.24456,-0.9171 v 0.12228 c 0,-0.0611 0.0611,-0.18342 0.12228,-0.24456 v -7.03115 c 0,-0.0611 -0.0611,-0.0611 -0.0611,-0.12228 z m -14.67369,11.61667 c -0.36685,1.28395 -0.91711,2.44562 -1.71194,3.54615 -1.34508,1.89535 -3.485,3.11816 -5.80833,3.30158 -1.16167,0.12228 -2.32334,0.12228 -3.485,-0.12228 -2.5679,-0.48913 -4.70782,-2.20106 -5.7472,-4.58553 -0.91711,-1.89535 -1.46737,-3.97413 -1.65079,-6.0529 -0.3057,-3.60728 -0.36684,-7.21457 0.48912,-10.76071 0.3057,-1.40623 0.91711,-2.81246 1.65079,-4.03527 1.34509,-2.20105 3.66842,-3.60728 6.23632,-3.7907 1.16167,-0.12228 2.32334,-0.12228 3.485,0.12228 2.44562,0.48912 4.46325,2.07877 5.56378,4.34097 1.03939,2.13991 1.65079,4.52439 1.77307,6.90886 0.0611,1.10053 0.12228,2.20106 0.0611,3.30158 0.18342,2.69018 -0.12228,5.31922 -0.85596,7.82597 z"
           id="path867" /><path
           style="fill:#ffffff;stroke-width:0.611404"
           d="m 405.29295,146.6095 h -8.49851 c -2.32334,0 -2.75132,0.42799 -2.75132,2.75132 v 19.80949 c 0,0.42798 0.18342,0.85596 -0.12228,1.28395 -0.55026,-0.0611 -0.85597,-0.42799 -1.28395,-0.67255 -6.3586,-3.72956 -13.0229,-4.40211 -19.74835,-1.28395 -4.70781,2.20106 -7.64254,6.17518 -9.5379,10.88299 -1.83421,4.52439 -2.26219,9.29334 -2.13991,14.12343 0,4.52439 1.03939,8.98764 3.05702,13.02291 2.32333,4.46325 5.68606,7.88711 10.57729,9.35448 6.6643,2.07877 12.90062,1.03938 18.58668,-3.1793 0.42798,-0.24456 0.67254,-0.67255 1.2228,-0.79483 0.30571,0.67255 0.55027,1.40623 0.67255,2.13992 0.24456,0.97824 1.10053,1.65079 2.13991,1.65079 h 1.46737 c 2.20106,0 4.34097,0.0611 6.48088,0 1.71193,0 2.20106,-0.55027 2.2622,-2.32334 v -64.44197 c -0.0611,-1.89535 -0.55027,-2.32334 -2.38448,-2.32334 z m -11.18869,44.99933 v 11.12755 c 0.12228,0.73369 -0.3057,1.40623 -0.97825,1.71193 -2.93473,1.65079 -6.29746,2.32334 -9.59904,1.83422 -2.81245,-0.30571 -5.25807,-2.01764 -6.54202,-4.52439 -0.97825,-1.9565 -1.52851,-4.03527 -1.71193,-6.17518 -0.48912,-3.85185 -0.18342,-7.76483 0.73368,-11.4944 0.30571,-1.03938 0.67255,-2.01763 1.22281,-2.99588 1.28395,-2.38447 3.72957,-3.91298 6.41974,-4.0964 3.24044,-0.3057 6.48089,0.3057 9.41562,1.65079 0.73369,0.24456 1.16167,0.97824 1.10053,1.77307 -0.12228,3.7907 -0.0611,7.45913 -0.0611,11.18869 z"
           id="path869" /><path
           style="fill:#ffffff;stroke-width:0.611404"
           d="m 442.22175,196.43892 c 3.54614,-0.24456 7.09228,-0.9171 10.27159,-2.62903 3.24044,-1.58965 5.50263,-4.58553 6.17517,-8.13168 0.42799,-2.20105 0.42799,-4.52439 -0.0611,-6.72544 -1.28394,-5.50263 -4.76895,-8.9265 -10.02702,-10.69957 -2.93474,-0.9171 -6.0529,-1.28395 -9.10992,-1.16167 -10.27158,0.24457 -18.09755,5.4415 -21.27685,15.71309 -2.13992,6.78658 -1.83422,13.69544 0.24456,20.48203 2.13991,6.97 7.03114,11.18869 14.00115,13.08404 2.99588,0.73369 6.11404,1.03939 9.17106,0.91711 4.46324,-0.0611 8.92649,-0.91711 13.14518,-2.50676 1.77307,-0.67254 2.20105,-1.28395 2.20105,-3.1793 v -4.40211 c -0.0611,-1.77307 -0.79482,-2.38447 -2.56789,-1.95649 -1.34509,0.36684 -2.62904,0.67254 -3.97413,0.97825 -4.0964,0.97824 -8.37623,1.16166 -12.53378,0.42798 -4.15755,-0.79483 -6.97,-3.1793 -8.07053,-7.33685 -0.3057,-1.22281 -0.55026,-2.44561 -0.67254,-3.72956 0.3057,0 0.6114,0 0.85596,0.12228 4.03527,0.73368 8.13167,1.03938 12.22808,0.73368 z m -12.77834,-9.78246 c 0.42798,-2.38448 0.97824,-4.70781 2.44561,-6.6643 2.2622,-2.99588 5.38036,-3.85185 8.9265,-3.48501 0.3057,0 0.55026,0.12229 0.85597,0.12229 4.27982,0.67254 5.31921,4.0964 4.52438,7.39798 -0.6114,2.44562 -2.62903,3.36272 -4.89123,3.79071 -1.2228,0.24456 -2.50675,0.36684 -3.7907,0.3057 -2.50676,-0.0611 -4.95237,-0.24456 -7.39799,-0.6114 -0.55026,-0.0611 -0.79482,-0.30571 -0.67254,-0.85597 z"
           id="path873" /></g></g></g></svg>
