<?xml version="1.0" encoding="UTF-8" standalone="no"?>
<!-- Created with Inkscape (http://www.inkscape.org/) -->

<svg
   width="512.0px"
   height="512.0px"
   viewBox="0 0 512.0 512.0"
   version="1.1"
   id="SVGRoot"
   sodipodi:docname="banco_do_brasil.svg"
   inkscape:version="1.2.2 (b0a8486541, 2022-12-01)"
   xml:space="preserve"
   xmlns:inkscape="http://www.inkscape.org/namespaces/inkscape"
   xmlns:sodipodi="http://sodipodi.sourceforge.net/DTD/sodipodi-0.dtd"
   xmlns="http://www.w3.org/2000/svg"
   xmlns:svg="http://www.w3.org/2000/svg"><sodipodi:namedview
     id="namedview564"
     pagecolor="#ffffff"
     bordercolor="#000000"
     borderopacity="0.25"
     inkscape:showpageshadow="2"
     inkscape:pageopacity="0.0"
     inkscape:pagecheckerboard="0"
     inkscape:deskcolor="#d1d1d1"
     inkscape:document-units="px"
     showgrid="true"
     inkscape:zoom="1.5878906"
     inkscape:cx="116.50677"
     inkscape:cy="205.6187"
     inkscape:window-width="1920"
     inkscape:window-height="1016"
     inkscape:window-x="0"
     inkscape:window-y="0"
     inkscape:window-maximized="1"
     inkscape:current-layer="layer1"><inkscape:grid
       type="xygrid"
       id="grid570" /></sodipodi:namedview><defs
     id="defs559" /><g
     inkscape:label="Camada 1"
     inkscape:groupmode="layer"
     id="layer1"><path
       style="fill:#fde100;fill-opacity:1;stroke-width:2.67353"
       d="M -0.85977536,256.66598 V -1.7664659 H 256.70231 514.26448 V 256.66598 515.09843 H 256.70231 -0.85977536 Z"
       id="path640" /><g
       id="g299"
       transform="matrix(18.036692,0,0,18.036692,-6511.3463,-8195.1933)"><path
         inkscape:connector-curvature="0"
         id="path10057"
         d="m 368.95863,464.49957 2.59766,1.7334 3.12011,-2.08008 -1.29882,-0.86915 1.68945,-1.12304 3.6377,2.42675 -5.97657,3.98438 1.29883,0.86914 7.41211,-4.9414 -6.24024,-4.16017 z m 12.48047,4.16015 -2.60253,-1.73339 -3.12013,2.08007 1.29883,0.86425 -1.68946,1.12794 -3.63768,-2.42676 5.97656,-3.98438 -1.29884,-0.86913 -7.40722,4.9414 6.24023,4.16016 z m 0,-6.58692 -1.30371,0.86915 -1.29882,-0.86915 2.60253,-1.7334 z m -12.48047,9.01368 1.29882,-0.86914 1.29884,0.86914 -2.59767,1.7334 z"
         style="clip-rule:nonzero;fill:#003882;fill-opacity:1;fill-rule:evenodd;stroke:none" /><path
         inkscape:connector-curvature="0"
         id="path10059"
         d="m 363.50056,476.70222 c 0.28353,0 0.98808,-0.0323 0.98808,-0.76399 0,-0.39727 -0.12393,-0.67399 -0.59931,-0.73342 0.36333,-0.0714 0.54498,-0.31239 0.54498,-0.64515 0,-0.61628 -0.41934,-0.7487 -0.93036,-0.7487 h -1.18672 v 2.89126 z m 21.29819,0 c 0.39728,0 0.79794,-0.0527 0.79794,-0.66551 0,-0.70797 -1.02543,-0.63667 -1.02543,-1.08657 0,-0.16298 0.10015,-0.25127 0.26824,-0.25127 h 0.55007 v -0.36501 h -0.77248 c -0.63325,0 -0.78945,0.28692 -0.78945,0.65702 0,0.70457 1.13579,0.6876 1.13579,1.08486 0,0.1596 -0.0866,0.26825 -0.26145,0.26825 h -0.81322 l -0.6027,-2.00842 h -0.72154 l -0.66721,2.15443 -0.41934,-0.92698 c 0.30729,-0.056 0.42953,-0.25126 0.43122,-0.60778 0,-0.40407 -0.24108,-0.61967 -0.61289,-0.61967 h -1.12899 v 2.36665 h 0.61628 v -2.00335 h 0.20542 c 0.17317,0 0.32428,0.12734 0.32428,0.35993 0,0.19695 -0.0985,0.35992 -0.25636,0.34974 l -0.17317,0.002 0.56195,1.29198 h 0.98808 l 0.14771,-0.52459 h 0.63835 l 0.14601,0.52459 z m -1.67228,-0.88622 h -0.45669 l 0.21731,-0.96942 z m -6.87416,0.95583 c 0.92188,0 0.92188,-0.61289 0.92188,-1.24105 0,-0.63665 0,-1.24276 -0.92188,-1.24276 -0.92187,0 -0.92187,0.60611 -0.92187,1.24276 0,0.62816 0,1.24105 0.92187,1.24105 m 0,-0.35993 c -0.26994,0 -0.30559,-0.26484 -0.30559,-0.88112 0,-0.61629 0.0356,-0.88283 0.30559,-0.88283 0.26994,0 0.3039,0.26654 0.3039,0.88283 0,0.61628 -0.034,0.88112 -0.3039,0.88112 m -2.92691,0.29032 h 0.8998 c 0.94396,0 0.88113,-0.8353 0.88113,-1.2003 0,-0.73852 -0.13582,-1.17315 -0.85906,-1.17315 h -0.92187 z m 0.601,-2.00504 h 0.24278 c 0.33105,0 0.33105,0.38539 0.33105,0.82172 0,0.59591 -0.0577,0.8234 -0.34633,0.8234 h -0.2275 z m 4.78254,0.74361 h 0.14941 c 0.28861,0 0.38029,0.15789 0.38029,0.41256 0,0.40575 -0.27333,0.40916 -0.39557,0.40916 h -0.31748 v -0.81663 z m -0.18335,-0.44142 v -0.73851 h 0.35313 c 0.19354,0 0.32936,0.15449 0.32936,0.36841 0,0.28012 -0.17487,0.36671 -0.2988,0.36671 h -0.20034 z m 0.4533,1.70454 c 0.28352,0 0.98808,-0.0323 0.98808,-0.76568 0,-0.39727 -0.12393,-0.67232 -0.5976,-0.73342 0.36331,-0.0714 0.54497,-0.31239 0.54497,-0.64515 0,-0.61628 -0.42104,-0.7487 -0.93036,-0.7487 h -1.18842 v 2.89295 z m 9.1016,-0.002 v -0.35822 h -0.70286 v -2.00843 h -0.60101 v 2.36665 z m -1.657,-2.36665 h -0.6027 v 2.36665 h 0.6027 z m -14.6736,2.43625 c 0.92188,0 0.92188,-0.61458 0.92188,-1.24613 0,-0.64006 0,-1.24785 -0.92188,-1.24785 -0.92017,0 -0.92017,0.60779 -0.92017,1.24785 0,0.63155 0,1.24613 0.92017,1.24613 m 0,-0.35993 c -0.26993,0 -0.30389,-0.26823 -0.30389,-0.8862 0,-0.61968 0.0339,-0.88624 0.30389,-0.88624 0.26994,0 0.3056,0.26656 0.3056,0.88624 0,0.61797 -0.0357,0.8862 -0.3056,0.8862 m -5.95738,-0.59759 h -0.45839 l 0.21732,-0.96772 z m -0.69437,0.88792 0.1494,-0.52461 h 0.63834 l 0.14601,0.52461 h 0.62986 l -0.71135,-2.36665 h -0.71985 l -0.72663,2.36665 z m 4.72652,0.0696 c 0.52289,0 0.82849,-0.20713 0.82849,-0.85228 h -0.59591 c -0.007,0.19015 -0.0102,0.49235 -0.23258,0.49235 -0.25298,0 -0.29033,-0.15449 -0.29033,-0.88622 0,-0.75889 0.0577,-0.88622 0.27844,-0.88622 0.15789,0 0.2292,0.11884 0.2292,0.44141 h 0.5925 c 0.022,-0.51951 -0.26654,-0.80303 -0.83699,-0.80303 -0.84886,0 -0.87264,0.53987 -0.87264,1.24784 0,0.71136 -0.022,1.24615 0.89982,1.24615 m -2.51097,-0.0696 v -1.57722 l 0.65703,1.57722 h 0.71134 v -2.36665 h -0.51271 v 1.52966 l -0.64005,-1.52966 h -0.72833 v 2.36665 z m -4.12382,-1.26482 h 0.0934 c 0.35313,0 0.46517,0.15618 0.46517,0.41255 0,0.40406 -0.33444,0.40746 -0.48385,0.40746 h -0.21901 v -0.81662 z m -0.14431,-0.44312 v -0.73851 h 0.26145 c 0.23769,0 0.40407,0.1562 0.40407,0.36841 0,0.28012 -0.21392,0.36841 -0.36672,0.36841 h -0.24616 z"
         style="clip-rule:nonzero;fill:#003882;fill-opacity:1;fill-rule:evenodd;stroke:none;stroke-width:0.347698" /></g></g></svg>
