<?xml version="1.0" encoding="UTF-8" standalone="no"?>
<!-- Created with Inkscape (http://www.inkscape.org/) -->

<svg
   width="1024.0px"
   height="1024.0px"
   viewBox="0 0 1024.0 1024.0"
   version="1.1"
   id="SVGRoot"
   sodipodi:docname="desktop_mode.svg"
   xml:space="preserve"
   inkscape:version="1.2.2 (b0a8486541, 2022-12-01)"
   xmlns:inkscape="http://www.inkscape.org/namespaces/inkscape"
   xmlns:sodipodi="http://sodipodi.sourceforge.net/DTD/sodipodi-0.dtd"
   xmlns="http://www.w3.org/2000/svg"
   xmlns:svg="http://www.w3.org/2000/svg"><sodipodi:namedview
     id="namedview14"
     pagecolor="#ffffff"
     bordercolor="#000000"
     borderopacity="0.25"
     inkscape:showpageshadow="2"
     inkscape:pageopacity="0.0"
     inkscape:pagecheckerboard="0"
     inkscape:deskcolor="#d1d1d1"
     inkscape:document-units="px"
     showgrid="true"
     inkscape:zoom="0.79394531"
     inkscape:cx="513.25953"
     inkscape:cy="512"
     inkscape:window-width="1920"
     inkscape:window-height="1016"
     inkscape:window-x="0"
     inkscape:window-y="0"
     inkscape:window-maximized="1"
     inkscape:current-layer="layer1"><inkscape:grid
       type="xygrid"
       id="grid20" /></sodipodi:namedview><defs
     id="defs9" /><g
     inkscape:label="Camada 1"
     inkscape:groupmode="layer"
     id="layer1"><g
       id="g744"
       style="fill:none;stroke:#000000"
       transform="matrix(1.8084885,0,0,1.8084885,49.026944,-36.582707)"><rect
         x="32"
         y="64"
         width="448"
         height="320"
         rx="32"
         ry="32"
         fill="none"
         stroke="currentColor"
         stroke-linejoin="round"
         stroke-width="32"
         id="rect411"
         style="fill:none;stroke:#ffffff" /><path
         stroke="currentColor"
         stroke-linecap="round"
         stroke-linejoin="round"
         stroke-width="32"
         d="m 304,448 -8,-64 h -80 l -8,64 z"
         id="path413"
         style="fill:none;stroke:#ffffff" /><path
         fill="none"
         stroke="currentColor"
         stroke-linecap="round"
         stroke-linejoin="round"
         stroke-width="32"
         d="M 368,448 H 144"
         id="path415"
         style="fill:none;stroke:#ffffff" /><path
         d="m 32,304 v 48 a 32.09,32.09 0 0 0 32,32 h 384 a 32.09,32.09 0 0 0 32,-32 v -48 z m 224,64 a 16,16 0 1 1 16,-16 16,16 0 0 1 -16,16 z"
         id="path417"
         style="fill:#ffffff;stroke:#ffffff" /></g><g
       aria-label="PC"
       id="text432"
       style="font-style:italic;font-weight:900;font-size:192px;font-family:Roboto;-inkscape-font-specification:'Roboto Heavy Italic';fill:#ffffff;stroke:#ffffff"
       transform="translate(-7.4460241,13.264453)"><path
         d="m 436.5585,912.79211 -8.0625,46.3125 h -32.0625 l 23.625,-136.5 49.03125,0.0937 q 22.78125,0 35.8125,12.65625 13.125,12.65625 11.53125,32.8125 -1.125,13.78125 -8.8125,23.90625 -7.6875,10.125 -20.34375,15.46875 -12.5625,5.34375 -28.21875,5.34375 z m 4.40625,-25.40625 19.3125,0.1875 q 12.1875,-0.28125 18.65625,-7.875 6.46875,-7.6875 5.15625,-18.84375 -0.75,-5.71875 -4.40625,-9 -3.5625,-3.375 -9.46875,-3.75 l -22.40625,-0.0937 z"
         id="path540" /><path
         d="m 632.96475,912.60461 q -1.21875,14.34375 -9.46875,25.5 -8.15625,11.15625 -21.5625,17.15625 -13.3125,6 -28.875,5.71875 -21.375,-0.46875 -33.65625,-13.78125 -12.28125,-13.3125 -13.40625,-36.09375 -0.84375,-15.1875 3.28125,-33.09375 4.21875,-17.90625 13.59375,-31.125 9.46875,-13.3125 22.21875,-19.875 12.84375,-6.65625 28.03125,-6.375 22.3125,0.375 35.25,13.40625 13.03125,13.03125 14.15625,35.90625 l -31.96875,-0.0937 q 0.1875,-12.46875 -4.5,-17.8125 -4.6875,-5.34375 -14.8125,-5.71875 -25.3125,-0.84375 -30.84375,39.375 -2.53125,18.1875 -2.53125,25.96875 -0.46875,23.0625 17.0625,23.71875 11.34375,0.375 18.09375,-5.53125 6.75,-6 8.625,-16.875 z"
         id="path542" /></g></g></svg>
