<?xml version="1.0" encoding="UTF-8" standalone="no"?>
<!-- Created with Inkscape (http://www.inkscape.org/) -->

<svg
   width="390.42297"
   height="123.29146"
   viewBox="0 0 390.42297 123.29146"
   version="1.1"
   id="SVGRoot"
   sodipodi:docname="/tmp/ink_ext_XXXXXX.svgEM7S61"
   xml:space="preserve"
   xmlns:inkscape="http://www.inkscape.org/namespaces/inkscape"
   xmlns:sodipodi="http://sodipodi.sourceforge.net/DTD/sodipodi-0.dtd"
   xmlns:xlink="http://www.w3.org/1999/xlink"
   xmlns="http://www.w3.org/2000/svg"
   xmlns:svg="http://www.w3.org/2000/svg"><sodipodi:namedview
     id="namedview14"
     pagecolor="#ffffff"
     bordercolor="#000000"
     borderopacity="0.25"
     inkscape:showpageshadow="2"
     inkscape:pageopacity="0.0"
     inkscape:pagecheckerboard="0"
     inkscape:deskcolor="#d1d1d1"
     inkscape:document-units="px"
     showgrid="true"
     inkscape:zoom="0.25"
     inkscape:cx="967.5"
     inkscape:cy="967.5"
     inkscape:window-width="1652"
     inkscape:window-height="991"
     inkscape:window-x="26"
     inkscape:window-y="23"
     inkscape:window-maximized="0"
     inkscape:current-layer="layer1"><inkscape:grid
       type="xygrid"
       id="grid20" /></sodipodi:namedview><defs
     id="defs9"><polygon
       id="path-1"
       points="16.6437,18.6676 0,18.6676 0,0.1836 16.6437,0.1836 " /><polygon
       id="path-3"
       points="14.0161,15 0.2321,15 0.2321,0.9504 14.0161,0.9504 " /><polygon
       id="path-5"
       points="13.8259,15 0.5539,15 0.5539,0.9504 13.8259,0.9504 " /><polygon
       id="path-7"
       points="9.5125,18 0.7995,18 0.7995,0.6253 9.5125,0.6253 " /><polygon
       id="path-9"
       points="13.4856,15 0.2146,15 0.2146,0.9504 13.4856,0.9504 " /><polygon
       id="path-11"
       points="12.2169,15 0.1589,15 0.1589,0.9502 12.2169,0.9502 " /><polygon
       id="path-13"
       points="9.2415,18 0.5285,18 0.5285,0.6253 9.2415,0.6253 " /><polygon
       id="path-15"
       points="14.4843,15 0.6993,15 0.6993,0.9504 14.4843,0.9504 " /></defs><g
     inkscape:label="Camada 1"
     inkscape:groupmode="layer"
     id="layer1"
     transform="translate(-46.732376,-165.30894)"><g
       id="Group-3"
       transform="matrix(2.0548575,0,0,2.0548575,46.732377,165.30895)"
       style="fill:none;fill-rule:evenodd;stroke:none;stroke-width:1"><rect
         id="Rectangle"
         x="0"
         y="0"
         width="190"
         height="60" /><g
         id="Group-41"
         transform="translate(0,15)"><path
           d="m 187.752,1.4807 c 0.199,0 0.312,-0.104 0.312,-0.251 0,-0.165 -0.113,-0.251 -0.312,-0.251 h -0.373 v 0.502 z m -0.667,-0.762 h 0.692 c 0.338,0 0.59,0.164 0.59,0.485 0,0.251 -0.148,0.407 -0.355,0.467 l 0.407,0.581 h -0.355 L 187.7,1.7237 h -0.321 v 0.528 h -0.294 z m 1.922,0.797 v -0.009 c 0,-0.736 -0.571,-1.342 -1.333,-1.342 -0.754,0 -1.334,0.614 -1.334,1.351 v 0.008 c 0,0.736 0.572,1.342 1.334,1.342 0.753,0 1.333,-0.614 1.333,-1.35 z m -2.84,0.008 v -0.008 c 0,-0.823 0.667,-1.515 1.507,-1.515 0.849,0 1.507,0.683 1.507,1.506 v 0.009 c 0,0.822 -0.667,1.515 -1.507,1.515 -0.849,0 -1.507,-0.684 -1.507,-1.507 z"
           id="Fill-1"
           fill="#ffffff" /><path
           d="m 169.334,9.5808 c 0,-5.178 4.118,-9.408 9.158,-9.408 5.04,0 9.158,4.23 9.158,9.408 0,5.178 -4.118,9.408 -9.158,9.408 h -9.158 z"
           id="Fill-3"
           fill="#ff160a" /><path
           d="m 179.5449,16.0593 c -0.702,0.143 -1.404,0.143 -2.106,0 -0.17,-0.035 -0.304,-0.172 -0.337,-0.347 -0.14,-0.721 -0.14,-1.442 0,-2.163 0.033,-0.176 0.167,-0.312 0.337,-0.347 0.702,-0.143 1.404,-0.143 2.106,0 0.17,0.035 0.304,0.171 0.337,0.347 0.14,0.721 0.14,1.442 0,2.163 -0.033,0.175 -0.167,0.312 -0.337,0.347"
           id="Fill-5"
           fill="#ffffff" /><path
           d="m 177.2261,11.6228 -0.517,-7.915 c 0,-0.289 0.2,-0.538 0.476,-0.59 0.871,-0.164 1.742,-0.164 2.613,0 0.277,0.052 0.477,0.301 0.477,0.59 l -0.517,7.915 c 0,0.226 -0.178,0.409 -0.399,0.409 -0.578,0.109 -1.156,0.109 -1.735,0 -0.22,0 -0.398,-0.183 -0.398,-0.409"
           id="Fill-7"
           fill="#ffffff" /><g
           id="Group-11"
           transform="translate(0,10.5744)"><mask
             id="mask-2"
             fill="#ffffff"><use
               xlink:href="#path-1"
               id="use229" /></mask><g
             id="Clip-10" /><path
             d="m 7.0947,15.2036 c 3.561,0 5.638,-2.633 5.638,-5.764 0,-3.27 -1.943,-5.792 -5.638,-5.792 h -3.264 v 11.556 z M -3e-4,0.1836 h 7.095 c 5.638,0 9.549,3.686 9.549,9.256 0,5.57 -3.911,9.228 -9.549,9.228 H -3e-4 Z"
             id="Fill-9"
             fill="#ff160a"
             mask="url(#mask-2)" /></g><g
           id="Group-14"
           transform="translate(18,14.5744)"><mask
             id="mask-4"
             fill="#ffffff"><use
               xlink:href="#path-3"
               id="use235" /></mask><g
             id="Clip-13" /><path
             d="m 10.4551,7.9614 c 0,-2.079 -1.213,-3.88 -3.345,-3.88 -2.131,0 -3.318,1.801 -3.318,3.88 0,2.106 1.187,3.907 3.318,3.907 2.132,0 3.345,-1.801 3.345,-3.907 m -10.223,0 c 0,-3.797 2.589,-7.011 6.878,-7.011 4.316,0 6.906,3.214 6.906,7.011 0,3.824 -2.59,7.039 -6.906,7.039 -4.289,0 -6.878,-3.215 -6.878,-7.039"
             id="Fill-12"
             fill="#ff160a"
             mask="url(#mask-4)" /></g><polygon
           id="Fill-15"
           fill="#ff160a"
           points="39.7231,29.2417 36.0541,29.2417 32.0891,15.8567 35.6491,15.8567 38.0771,24.8637 40.9361,15.8567 43.9851,15.8567 46.8441,24.8637 49.2721,15.8567 52.8321,15.8567 48.8671,29.2417 45.2251,29.2417 42.4741,20.1247 " /><path
           d="m 63.397,21.1501 c 0,-1.857 -0.944,-2.494 -2.401,-2.494 -1.349,0 -2.401,0.776 -2.967,1.579 v 9.007 h -3.426 v -13.385 h 3.426 v 1.746 c 0.836,-1.025 2.428,-2.078 4.559,-2.078 2.859,0 4.235,1.662 4.235,4.267 v 9.45 h -3.426 z"
           id="Fill-17"
           fill="#ff160a" /><path
           d="m 78.3853,20.1804 c -0.593,-0.887 -1.807,-1.524 -2.967,-1.524 -1.942,0 -3.291,1.579 -3.291,3.907 0,2.3 1.349,3.88 3.291,3.88 1.16,0 2.374,-0.638 2.967,-1.525 z m 0,7.371 c -1.024,1.302 -2.455,2.023 -4.019,2.023 -3.291,0 -5.773,-2.549 -5.773,-7.011 0,-4.379 2.455,-7.039 5.773,-7.039 1.538,0 2.995,0.693 4.019,2.051 v -6.817 h 3.453 v 18.484 h -3.453 z"
           id="Fill-19"
           fill="#ffffff" /><g
           id="Group-23"
           transform="translate(83,14.5744)"><mask
             id="mask-6"
             fill="#ffffff"><use
               xlink:href="#path-5"
               id="use244" /></mask><g
             id="Clip-22" /><path
             d="m 4.0879,6.7144 h 6.42 c -0.081,-1.275 -0.944,-2.965 -3.21,-2.965 -2.131,0 -3.048,1.635 -3.21,2.965 m 3.21,-5.764 c 3.884,0 6.528,2.993 6.528,7.371 v 0.776 h -9.684 c 0.216,1.69 1.538,3.104 3.749,3.104 1.215,0 2.644,-0.499 3.48,-1.33 l 1.511,2.272 c -1.322,1.247 -3.345,1.857 -5.368,1.857 -3.966,0 -6.96,-2.744 -6.96,-7.039 0,-3.88 2.779,-7.011 6.744,-7.011"
             id="Fill-21"
             fill="#ffffff"
             mask="url(#mask-6)" /></g><g
           id="Group-26"
           transform="translate(97,11.5744)"><mask
             id="mask-8"
             fill="#ffffff"><use
               xlink:href="#path-7"
               id="use250" /></mask><g
             id="Clip-25" /><path
             d="m 2.9575,14.3423 v -6.983 h -2.158 v -3.077 h 2.158 v -3.657 h 3.453 v 3.657 h 2.643 v 3.077 h -2.643 v 6.041 c 0,0.831 0.431,1.468 1.186,1.468 0.513,0 0.999,-0.193 1.188,-0.388 l 0.728,2.661 c -0.513,0.471 -1.43,0.859 -2.86,0.859 -2.401,0 -3.695,-1.275 -3.695,-3.658"
             id="Fill-24"
             fill="#ffffff"
             mask="url(#mask-8)" /></g><g
           id="Group-29"
           transform="translate(107,14.5744)"><mask
             id="mask-10"
             fill="#ffffff"><use
               xlink:href="#path-9"
               id="use256" /></mask><g
             id="Clip-28" /><path
             d="m 3.7476,6.7144 h 6.42 c -0.081,-1.275 -0.943,-2.965 -3.21,-2.965 -2.131,0 -3.048,1.635 -3.21,2.965 m 3.21,-5.764 c 3.885,0 6.528,2.993 6.528,7.371 v 0.776 h -9.684 c 0.216,1.69 1.538,3.104 3.75,3.104 1.214,0 2.643,-0.499 3.48,-1.33 l 1.51,2.272 c -1.321,1.247 -3.345,1.857 -5.368,1.857 -3.965,0 -6.959,-2.744 -6.959,-7.039 0,-3.88 2.778,-7.011 6.743,-7.011"
             id="Fill-27"
             fill="#ffffff"
             mask="url(#mask-10)" /></g><g
           id="Group-32"
           transform="translate(122,14.5744)"><mask
             id="mask-12"
             fill="#ffffff"><use
               xlink:href="#path-11"
               id="use262" /></mask><g
             id="Clip-31" /><path
             d="m 7.0649,0.9502 c 2.67,0 4.289,1.191 5.152,2.438 l -2.238,2.135 c -0.621,-0.915 -1.565,-1.442 -2.752,-1.442 -2.077,0 -3.534,1.552 -3.534,3.88 0,2.328 1.457,3.907 3.534,3.907 1.187,0 2.131,-0.554 2.752,-1.44 l 2.238,2.133 c -0.863,1.247 -2.482,2.439 -5.152,2.439 -4.02,0 -6.906,-2.91 -6.906,-7.039 0,-4.101 2.886,-7.011 6.906,-7.011"
             id="Fill-30"
             fill="#ffffff"
             mask="url(#mask-12)" /></g><g
           id="Group-35"
           transform="translate(135,11.5744)"><mask
             id="mask-14"
             fill="#ffffff"><use
               xlink:href="#path-13"
               id="use268" /></mask><g
             id="Clip-34" /><path
             d="m 2.6865,14.3423 v -6.983 h -2.158 v -3.077 h 2.158 v -3.657 h 3.453 v 3.657 h 2.643 v 3.077 h -2.643 v 6.041 c 0,0.831 0.431,1.468 1.186,1.468 0.513,0 0.999,-0.193 1.188,-0.388 l 0.728,2.661 c -0.513,0.471 -1.43,0.859 -2.86,0.859 -2.401,0 -3.695,-1.275 -3.695,-3.658"
             id="Fill-33"
             fill="#ffffff"
             mask="url(#mask-14)" /></g><g
           id="Group-38"
           transform="translate(144,14.5744)"><mask
             id="mask-16"
             fill="#ffffff"><use
               xlink:href="#path-15"
               id="use274" /></mask><g
             id="Clip-37" /><path
             d="m 10.9233,7.9614 c 0,-2.079 -1.214,-3.88 -3.345,-3.88 -2.131,0 -3.318,1.801 -3.318,3.88 0,2.106 1.187,3.907 3.318,3.907 2.131,0 3.345,-1.801 3.345,-3.907 m -10.224,0 c 0,-3.797 2.59,-7.011 6.879,-7.011 4.316,0 6.906,3.214 6.906,7.011 0,3.824 -2.59,7.039 -6.906,7.039 -4.289,0 -6.879,-3.215 -6.879,-7.039"
             id="Fill-36"
             fill="#ffffff"
             mask="url(#mask-16)" /></g><path
           d="m 160.0723,15.8571 h 3.426 v 1.829 c 0.917,-1.192 2.535,-2.134 4.154,-2.134 v 3.436 c -0.243,-0.055 -0.567,-0.083 -0.944,-0.083 -1.133,0 -2.644,0.638 -3.21,1.497 v 8.84 h -3.426 z"
           id="Fill-39"
           fill="#ffffff" /></g></g></g></svg>
