<?xml version="1.0" encoding="UTF-8" standalone="no"?>
<!-- Created with Inkscape (http://www.inkscape.org/) -->

<svg
   width="512.0px"
   height="512.0px"
   viewBox="0 0 512.0 512.0"
   version="1.1"
   id="SVGRoot"
   sodipodi:docname="fifa_logo.svg"
   xml:space="preserve"
   inkscape:version="1.2.2 (b0a8486541, 2022-12-01)"
   xmlns:inkscape="http://www.inkscape.org/namespaces/inkscape"
   xmlns:sodipodi="http://sodipodi.sourceforge.net/DTD/sodipodi-0.dtd"
   xmlns="http://www.w3.org/2000/svg"
   xmlns:svg="http://www.w3.org/2000/svg"><sodipodi:namedview
     id="namedview14"
     pagecolor="#ffffff"
     bordercolor="#000000"
     borderopacity="0.25"
     inkscape:showpageshadow="2"
     inkscape:pageopacity="0.0"
     inkscape:pagecheckerboard="0"
     inkscape:deskcolor="#d1d1d1"
     inkscape:document-units="px"
     showgrid="true"
     inkscape:zoom="1"
     inkscape:cx="233.5"
     inkscape:cy="235.5"
     inkscape:window-width="1920"
     inkscape:window-height="1016"
     inkscape:window-x="0"
     inkscape:window-y="0"
     inkscape:window-maximized="1"
     inkscape:current-layer="layer1"><inkscape:grid
       type="xygrid"
       id="grid20" /></sodipodi:namedview><defs
     id="defs9"><polygon
   id="path-1"
   points="0 0.1836 16.6437 0.1836 16.6437 18.6676 0 18.6676" /><polygon
   id="path-3"
   points="0.2321 0.9504 14.0161 0.9504 14.0161 15 0.2321 15" /><polygon
   id="path-5"
   points="0.5539 0.9504 13.8259 0.9504 13.8259 15 0.5539 15" /><polygon
   id="path-7"
   points="0.7995 0.6253 9.5125 0.6253 9.5125 18 0.7995 18" /><polygon
   id="path-9"
   points="0.2146 0.9504 13.4856 0.9504 13.4856 15 0.2146 15" /><polygon
   id="path-11"
   points="0.1589 0.9502 12.2169 0.9502 12.2169 15 0.1589 15" /><polygon
   id="path-13"
   points="0.5285 0.6253 9.2415 0.6253 9.2415 18 0.5285 18" /><polygon
   id="path-15"
   points="0.6993 0.9504 14.4843 0.9504 14.4843 15 0.6993 15" />
	

		
		
		
		
		
		
		
		
		
		
		
		
		
		
		
		
	<radialGradient
   id="_Radial1"
   cx="0"
   cy="0"
   r="1"
   gradientUnits="userSpaceOnUse"
   gradientTransform="matrix(760.124,0,0,760.124,1381.52,538.896)"><stop
     offset="0"
     style="stop-color:white;stop-opacity:1"
     id="stop1116" /><stop
     offset="0.01"
     style="stop-color:white;stop-opacity:1"
     id="stop1118" /><stop
     offset="0.03"
     style="stop-color:rgb(203,255,255);stop-opacity:1"
     id="stop1120" /><stop
     offset="0.06"
     style="stop-color:rgb(150,255,255);stop-opacity:1"
     id="stop1122" /><stop
     offset="0.08"
     style="stop-color:rgb(104,255,255);stop-opacity:1"
     id="stop1124" /><stop
     offset="0.11"
     style="stop-color:rgb(67,255,255);stop-opacity:1"
     id="stop1126" /><stop
     offset="0.14"
     style="stop-color:rgb(37,255,255);stop-opacity:1"
     id="stop1128" /><stop
     offset="0.16"
     style="stop-color:rgb(17,255,255);stop-opacity:1"
     id="stop1130" /><stop
     offset="0.19"
     style="stop-color:rgb(4,255,255);stop-opacity:1"
     id="stop1132" /><stop
     offset="0.22"
     style="stop-color:rgb(0,255,255);stop-opacity:1"
     id="stop1134" /><stop
     offset="1"
     style="stop-color:rgb(0,0,255);stop-opacity:0"
     id="stop1136" /></radialGradient><path
   id="a"
   d="M114.627 35.198c15.612 0 28.346 12.733 28.346 28.347 0 15.613-12.733 28.347-28.346 28.347S86.28 79.158 86.28 63.545c0-15.613 12.734-28.347 28.347-28.347z" /><path
   id="c"
   d="M86.28 35.198h56.692v56.693H86.28z" /><path
   id="e"
   d="M102.948 77.904c.359.072.432.072.504.145.144.144.359 0 .144-.288-.144-.36-.288-1.224-.504-1.512-.144-.288-.288-.72-.576-.504-.432.144-.576.072-.936.072-.288-.072-.576 0-.36.145.072.288.144.359.36.359.288.072.359.072.504.288.144.144.359.36.359.576 0 .432-.287.648.072.648.145 0 .216-.072.433.071zm-.144 1.368c.072.288.145 1.368.145 1.728 0 .144.144.504-.072.72-.145.288-.288.576-.072.72.145.144.288.072.504-.072.145-.216.216-.432.36-.504.288-.144.288-.504.216-.72 0-.288-.072-.864 0-1.08.072-.288.072-.648-.072-.72-.288-.072-.359-.288-.432-.432-.072-.288-.216-.36-.432-.288-.218.001-.218.217-.145.648zm18.504 3.889c-.216.072-.576.216-.576.504-.071.144-.071.216.145.36.288.216.504.288.792.36.359.216.576.216.792.216.072 0 .144-.072.144-.216 0-.144-.144-.576-.359-.864-.145-.288-.288-.432-.433-.432-.145-.072-.29-.072-.505.072zm-.072-10.296c2.159-1.584 3.672-3.168 4.68-4.248l5.544 1.8c0 .072-.072.144-.072.144 0 .216.072.504-.216 1.008s-.648.937-.864 1.008-.576.144-.936.504c-.288.216-.864.576-1.152 1.224-.216.216-.504 1.08-.936 1.512-.433.36-.792.72-1.225.864-.359.216-.575.288-1.151.288-.433 0-.576.216-.792.432-.072.216-.145.144-.288.36-.36.216-.504.288-.721.576-.287.072-.504.288-.647.576-.216.36-.433.792-.504 1.152-.145.288-.433.648-.576.936-.144.144-.576.36-.72.504-.072.144-.145.216-.217.432-.071.288-.071.504-.432.576-.216.072-.288.216-.432.36-.072.144-.145.288-.288.216-.216-.072-.36-.216-.433-.648-.071-.432-.287-1.296-.287-1.728 0-.288 0-.648.144-1.08.216-.432.36-.648.36-1.08.071-.36.071-.504 0-.792-.145-.216-.217-.36-.145-1.008 0-.216.36-.792.504-1.008v-.072c0-.288.288-.576.36-.792.144-.432.36-.792.432-1.008.145-.216.145-.288.216-.432.218-.144.434-.36.794-.576zm4.104-12.888c-.072-.216-.145-.576-.216-.792.144.072.36.072.576.216.216.36.432.432.792.576.144.144.359.36.576.432.071.216.359.36.575.792.145.504.145.864.216 1.152.072.144.36.576.504.864.145.144.36.576.793.648.287.072.575.216.792.216.071.144.359.216.432.216.144 0 .288.072.504.144.216.072 1.152.36 1.296.576.288.144.792.36.792.864.072.36 0 .72-.216 1.08-.072.144-.36.72-.648 1.008l-5.472-1.728c-.073-1.512-.432-3.673-1.296-6.264zm-3.24-1.657c1.225 2.592 1.872 5.256 2.088 8.424a18.666 18.666 0 0 1-3.815 3.744c-.145-.432-.36-.648-.504-.864-.288-.36-.505-.504-.721-.576-.288-.145-.504-.432-.647-.792-.36-.288-.648-1.008-.792-1.296-.145-.433-.36-.72-.36-1.296a5.828 5.828 0 0 1 0-1.584c.145-.504.432-1.296.504-1.368.145-.216.576-.72.648-.864.072-.216.216-.648.072-.864-.072-.216-.36-.647-.648-.72-.216-.144-.432-.144-.72-.216-.145-.072-.721-.288-.937-.576-.144-.072-.359-.288-.504-.432-.288-.288-.576-.576-.864-.576-.288-.072-.504-.145-.863-.216-.433-.216-.721-.288-1.152-.576-.216-.288-.36-.36-.647-.36-.288 0-.433-.288-.721-.576-.144-.144-.216-.144-.576-.576l-.287-.72c-.072-.216-.217-.432-.433-.648 1.224-.144 2.448-.288 3.888-.288-.144.144-.359.432-.72.72-.144.144-.288.432-.216.648 0 .288.072.288.144.504.145.144.288.216.648.216.144-.072.504-.144.647-.144.217 0 .433-.072.505.144.071.36.144.648.359.72.433.072.576.072.648.072.071.072.288.216.359.36.217.288.433.72.648.936.144.144.36.36.576.36.216.072.288.072.36.072.144 0 .432 0 .575.072.072.072.216.144.433.216.071.072.216.288.287-.072.145-.144.217-.576.505-.792.288-.144.359-.288.72-.288.288-.072.792-.144 1.08 0 .145-.071.36.001.433.072zm-7.632-6.336c-2.016 0-3.744.216-5.112.576l-.071-.072c-.072-.36-.216-.504-.505-.792-.287-.432-.863-1.008-1.224-1.512-.216-.288-.36-.864-.647-1.656-.288-.792-.648-1.944-.792-2.304-.145-.432-.576-.72-.864-.864-.432-.144-.576-.288-.72-.36.647-1.152 1.512-2.52 2.735-3.672.072.072.145.072.145.072.359.072 1.224.72 1.512.576.36-.144.936-.504 1.224-.648.433-.144.937-.288 1.368-.504.433-.072.721-.144.937 0 .216.288.792.36 1.008.216.36-.288.936-.432 1.368-.36h.647c.072.072.36.072.504.072.145.072.433.432.721.432.216 0 .575.072.432.288-.072.36-.36.504-.648.576-.216.072-.575.072-.936.288-.216.144-.648.432-.72.72-.217.216-.217.504 0 .72.288.145.647.216 1.008.288.288.072.647.072.936.288s.576-.144.721.288c.071.432.071.576.216.792.071.216.216.432.432.36.36-.072.504-.288.648-.648.144-.432.359-.792.504-1.08.071-.216.144-.36.071-.72 0-.216-.071-.288-.287-.504-.217-.145-.288-.36-.36-.648s.216-.36.432-.36c.145-.144.433 0 .864.072.432.145.576.216.72.504.145.288.36.36.433.72.072.288.216.647.288.72.216.072.359.144.647.072.145-.072 0 0 .145 0 .288-.072.359-.072.432.072.216.144.36.216.432.792 0 .576-.071.72-.216.936-.216.144-.359.216-.504.216-.216 0-.36 0-.432.072-.145 0-.216.216-.145.432 0 .144.36 1.008.36 1.296 0 .288.072.72-.36.72s-1.08.072-1.368.144c-.504.144-1.008.72-1.296 1.08-.216.288-.216.36-.359.504-.072.288-.216.504-.36.576-.288.072-.504.288-.648.36-.071.144-.216.216-.504.144-.216-.072-.575-.288-1.008-.144-.072 0-.432.648-.792.936-.292-.072-.652-.072-1.012-.072zm-9.361-11.376c-1.151.937-2.016 2.088-2.664 3.24h-.216c-.288 0-.575-.072-1.08.072a23.1 23.1 0 0 1-1.008.216c-.216.072-.36.216-.576.216-.144-.144-.071-.36-.071-.432.071-.145.359-.36 0-.504-.217-.072-.288-.216-.288-.432.071-.216.216-.576.575-.792.145-.216.433-.72.648-.864.288-.144.504-.504.72-.504.145.216.505-.144.792-.216.288-.072.792-.216 1.225-.216.432 0 .792 0 1.296.072.144.001.288.073.647.144z" /><path
   id="g"
   d="M99.204 40.393h33.84v44.208h-33.84z" /><path
   id="i"
   d="M69.838 35.198c15.613 0 28.347 12.733 28.347 28.347 0 15.613-12.733 28.347-28.347 28.347-15.613 0-28.346-12.734-28.346-28.347 0-15.613 12.733-28.347 28.346-28.347z" /><path
   id="k"
   d="M41.492 35.198h56.693v56.693H41.492z" /><path
   id="m"
   d="M80.771 59.977c-.864-2.592-1.872-4.536-2.664-5.832l4.464-6.048c1.728.216 4.248.576 6.696 2.088-.216.504-.36.792-.216 1.152.144.359-.144.647-.144.72 0 .144-.072.432-.072.504 0 .144-.072.576-.072.792 0 .144 0 .576-.144.72-.288.072-.36.36-.72.072-.36-.216-.504-.432-.864-.504-.216-.216-.288-.216-.433 0-.072.144-.359.36-.072.72.072.216.288.432.36.648.072.216.072.288 0 .432-.072.216-.216.36-.144.72.072.36.072.936.144 1.296 0 .288-.072.504-.144.648-.072.072-.072.288-.072.36 0 0-.072.288-.432.504-.288.144-.864.36-1.008.432-.216.288-.576.432-.432 1.152.072.432-.144 1.224-.072 1.296.072.144.144.576-.072.72-.36.072 0 0-.288.072-.145 0-.36.144-.216.576.144.216.216.72.216 1.08 0 .216-.36.504-.648.432-.36-.144-.792-.648-1.008-1.008-.072-.288-.288-1.008-.36-1.368-.072-.576-.72-.576-1.008-.864 0 0-.072 0-.072-.072-.214-.433-.358-.864-.503-1.44zM67.956 55.44c-.36.072-.576.36-.504.648.144.288.144.432.36.576.145.288.145.432 0 .504 0 .144 0 .432.145.72.072.216.144.504.504.432.432-.144.504-.359.576-.576.072-.144.072-.576.216-.648.072-.072.072-.36 0-.576-.216-.144-.576-.792-.792-.864-.073-.216-.289-.287-.505-.216zm-9.648 13.177c.864 1.008 2.376 2.448 4.392 3.96-.216.288-.648.864-.648 1.152 0 .36-.072 1.224-.216 1.44-.072.144-.504.576-.72 1.008-.072.216-.144.576-.36.864-.36.36-.432.72-.72.936-.504.36-.937.504-1.08.576-.216 0-.432 0-.648.072-.216.216-.864.216-1.152.216s-.648-.216-.72-.504c0-.433-.072-.648-.36-.937-.288-.288-.432-1.08-.576-1.439-.072-.288-.576-1.225-.72-1.512-.072-.216-.36-.864-.288-1.584.144-.432.36-1.08.36-1.584s0-1.08-.072-1.512l3.528-1.152zm6.192 6.768c.144.432.144.648-.072 1.152-.144.432-.36.864-.504 1.152-.288.216-.432.288-.792.216-.144-.072-.216-.288-.216-.647 0-.216.144-.648.144-.937 0-.288.432-.647.576-.647.072-.145.36-.288.576-.432.072-.145.288-.145.288.143zm24.336-1.441c.072 1.584-.072 3.456-.792 5.4-.36.432-.648.936-1.152 1.296a.562.562 0 0 0-.288-.288c-.432-.144-1.08-.432-1.439-.504-.288 0-.864 0-1.08.432-.144.216-.36.288-.648.288a.504.504 0 0 0-.504.432c-.072.288-.216.864-.576.864-.216.072-.864.072-.936.288-.072.145-.216.72-.504.937-.145.144-.288.432-.576.144-.288-.216-.432-.792-.576-.936-.072-.288-.216-.576-.36-.72-.216-.216-.432-.288-.432-.576 0-.504 0-.648-.144-.936-.144-.216-.432-.864-.432-1.152.145-.36.216-.864.432-1.008.144-.144.936-.936 1.08-1.152.144-.144.36-.432.36-.792.072-.216.072-.576.072-.937 0-.504-.072-.504.072-.648.216-.144.288-.144.504-.144.288 0 .432 0 .576-.288.144-.36.216-.792.504-1.08.144-.36.36-.432.576-.504.144-.072.504-.072.648-.072.144.072.144.144.216.216 0 .144.072.576.432.72.144.144.432.504.792.36.288-.144.36-.144.36-.432v-1.08c0-.288-.072-.648.216-.648s.432.216.648.36c.144.288.648.72.864.936.216.36.576.576 1.152.864.359.073.719.289.935.36zm2.088-5.4c.36.432.504.648.648.864.36.216.576.36.72.576.216.432.504.937.648 1.08.288.288.648.72.936.648.288 0 .288-.072.288-.36s0-.576-.36-1.008c-.432-.504-.792-.936-1.008-1.368-.288-.36-.648-1.008-1.08-1.08-.36-.144-.72-.216-.864 0-.216.145-.144.433.072.648zm-5.328-3.96c-.36.216-.432.576-.432.864 0 .432 0 .648.36.648.432.144.72 0 1.008-.144.216-.072.144-.36.144-.576 0-.144-.072-.72-.288-.864-.144-.072-.288-.287-.792.072zm-15.84-10.079c2.304 0 4.392.288 6.192.72 1.152 2.088 2.088 4.032 2.736 6.048-.288.216-.576.36-.647.432-.145.072-.433.288-.648.648-.144.288-.576.936-.936 1.08-.216.216-.72.432-.72.792 0 .288-.144.936-.216 1.152-.072.36-.288 1.08-.576 1.08-.288.072-.288.072-.504-.216-.072-.288-.36-.864-.864-1.224-.216-.36-.792-1.152-.864-1.368-.072-.288-.144-1.008-.432-1.296-.288-.504-.576-.576-.864-.864-.36-.288-.72-.576-1.008-.936-.36-.432-.72-.648-1.296-.72-.648 0-.792 0-1.008.072-.36.145-.576.216-.576.648 0 .216-.072.432.072.576.216.144.72.792 1.08.864.288.072.648.36.72.504.216.072.576.504.576.72 0 .144-.072.36-.36.576-.216.144-.72.576-1.368.72-.72.072-1.512.288-1.8.144-.144-.072-.216-.288-.216-.72.072-.288 0-.72-.144-1.008-.288-.288-.576-1.08-.72-1.512-.072-.432-.288-1.008-.648-1.368-.288-.216-.648-.36-1.008-.288-.216.072-.288.288-.288.648-.072.288 0 .792.072 1.296.072.288.144.792.144 1.08s.144 1.296.288 1.656c.072.288.504 1.296.576 1.512.216.144.36.576.648.648.288.144.36.144.576.144.288 0 .72 0 .72.144s.144.36-.072.504c-.145.288-.145.432-.216.504-.072.072-.36.36-1.296.792-.216.072-.36.72-.432 1.008-.072.145-.216.504-.432.864-1.368-1.008-2.664-2.304-3.96-3.816.216-3.312.936-5.976 2.16-8.64.576 0 1.728 0 1.872.144.216-.072.72-.144 1.008-.216.288-.144.504-.36.504-.864 0-.576-.145-.792-.504-.864-.36 0-1.008.072-1.728-.216.072-.288.216-.576.36-.864a25.26 25.26 0 0 1 6.047-.72zM93.3 51.841c0 .216-.144.792-.432 1.224-.144.576-.648 1.008-.936 1.296-.432.145-.576.432-.792.792-.288.145-.648.288-.648.576-.144.144.072.144.216.144.216.072.432 0 .576 0 .144-.072.576-.216.648.072.144.36.432.432.576 0 0-.216.216-.576.432-.72.288-.288.864-.792 1.08-1.224.145-.36.576-1.224.504-1.872 0-.72-.288-1.08-.36-1.152-.145-.144-.36-.432-.576.072-.072.288-.216.36-.288.792zm-42.552-1.8l.144-.072c.216-.072.576-.072.864-.072.36.144.576.216.72.288.216.144.36.216.504 0 .072-.144.216-.144.433-.144.288 0 .359 0 .359-.216 0-.288 0-.648-.144-1.08.504-.144 1.08-.288 1.512-.36.216.072.288.072.36.144.144.072.216.216.792.216.432 0 .576-.072.792-.072.072 0 .216 0 .36-.072l4.104 5.544c-.216.288-.288.504-.504.792-.216-.144-.72-.288-.792-.792-.072-.36-.216-.792-.288-1.008-.144-.144-.576-.792-.792-1.08-.216-.216-.504-.792-.864-1.008-.288-.216-.576-.072-.576.144.072.216 0 .432.288.648 0 .144.072.216.072.36 0 .288.072.432.144.648.144.216.72.792.792.936.144.144.288.288.288.36-.144.216-.144.288-.216.216-.144-.216-.216-.288-.432-.288-.144 0-.216 0-.216.072 0 .288-.072.576-.144.792-.072.288-.576.72-.72.504-.072-.072-.072-.216 0-.504 0-.288.072-.576 0-1.008-.072-.432-.288-.72-.504-.864-.288-.288-.36-.72-.432-1.08-.144-.288-.216-.792-.576-.792h-.72c-.288.072-.432.072-.504.216-.144.288-.144.432-.647.504-.504.072-.864 0-.864.288s-.144.576-.432.576c-.432 0-.72-.072-.936.216-.36.144-.432.432-.576.216-.072-.072-.072-.072-.288-.144-.432-.288-.576-.288-.648-.36-.144-.144-.36-.504-.288-.648.072-.216.288-.936.36-1.008v-.72c0-.144.143-.216.215-.288zm8.136 9.936c-.792 2.592-1.224 4.752-1.296 6.264l-3.384 1.08c0-.288.072-.576.072-.792.144-.288.144-.647-.144-.936-.144-.216-.288-.144-.432-.144-.144-.072-.576-.216-.72-.36-.072-.288-.216-.504-.647-.504-.288 0-.72-.072-1.224.072-.576.072-.36.36-1.008.144-.648-.144-.936-.288-1.296-.576-.288-.288-.504-.432-.936-1.152-.288-.648-.288-.72-.504-1.08-.288-.144-.36-.36-.36-.72 0-.288-.144-1.008 0-1.44.36-.504.72-1.152.792-1.512 0-.288.432-.936.648-1.152.216-.216.36-.504.432-.648.216-.072.72-.36.864-.576.288-.072.576-.504.72-.576.216-.072.504-.216.648-.36.216-.072.288-.216.36-.288.072 0 .144-.144.504 0 .144.072.432.288.936.288.288 0 .72.144 1.08 0 .288-.072.648-.072.864 0 .145.144.288.216.648.432.144.288.36.432.288.72-.072.216-.145.288-.072.432.144.432.36.504.576.576.072.072.792 0 .864.144.216.072.576.576.864.576.145 0 .288.072.432-.216.288-.288.504-.432.72-.36.144 0 .36.072.648.144-.361.72-.721 1.656-.937 2.52zm30.744-11.953c-2.088-1.296-4.392-2.16-6.768-2.304-.864-1.944-2.16-3.672-3.672-5.184.288-.144.432-.36.576-.36.216-.144.288-.288.648-.288.359 0 .504 0 1.008.144.288.144.648.36 1.152.216.36-.072.504 0 .72-.072.144-.072.648-.36.864-.432a1.01 1.01 0 0 1 .504-.288c1.944 1.152 3.672 2.664 5.4 4.32-.072.072-.216.145-.216.288-.432.576-.792.72-.936.936-.072.216-.432.504-.432.864s-.144.576.216.576c.36.072.792.072.936.216.072.144.432.36.216.864-.144.216-.216.289-.216.504zm-19.872 3.96c-2.664 0-4.896.504-6.264.792l-3.888-5.256c.216-.072.433-.072.576 0 .216.144.288 0 .648.216.432.145 1.008.145 1.224.145.144 0 .576 0 .792.144.216 0 .864-.144 1.08-.288.288-.216.144-.36.072-.504-.072-.216-.36-.576.072-.864.288-.36.648-.432.864-.864.216-.432.144-.792 0-.937-.144-.072-.432-.072-.576.072-.288.072-.36.216-.72.144-.072 0-.504.072-.72.216-.072.072-.504.36-.792.72-.072.216-.288 1.008-.504 1.08-.504.072-1.296-.216-1.225-.792.072-.216.36-.504.288-.648-.216-.216-.288-.288-.504-.216h-.432c.36-.576.72-1.296 1.224-1.944.144-.072.36-.144.648-.144.359-.216 1.728-.576 1.944-.72.36-.145 1.08-.36 1.152-.433.072-.072.216-.072.432 0 .216 0 .648.145 1.08-.216.216-.288.504-.288.72-.144.288.359.288.647.576.647.432 0 .72.145.72.864-.072.504-.288.648-.288.864 0 .216 0 .792.288.792.216 0 .432-.072.504-.072.072 0 .144-.144.216-.144.144 0 .648-.288.792-.504.216-.288.72-.792 1.008-.864.288 0 .72.144 1.008-.288.216-.36.504-.504.648-.504.216 0 .216-.145.432 0 .216.144.792.072.937-.145.288-.072.288-.144.504-.144.648 0 .792.144 1.008-.145.216-.359.216-.359.576-.359.216 0 .288 0 .432.432.072.216.36.216.36.504s0 .648.144.72c.145 0 .433 0 .72-.36.072-.072.216-.288.36-.504a18.836 18.836 0 0 1 2.736 4.248l-4.464 6.192c-1.44-.284-3.6-.789-6.408-.789zM56.652 41.4c.072 0 .288.072.288.072-.072.072-.216.072-.288.216 0 .144.288.216.216.288-.072.072-.36.216-.504.432-.144.288 0 .648-.144.864-.144.072-.216.072-.216.144h.288c.072.144.072.36 0 .432 0 .144-.072.216-.288.288a4.37 4.37 0 0 0-.36.216c0 .144.432.144.36.216 0 .288-1.008.288-1.224.432-.792.072-1.368.432-1.368.144-.072-.36 1.224-.648 1.224-.792 0 0-.144 0-.216-.144-.144 0-.216-.072-.144-.144 0-.072.36-.144.36-.144s.144-.072.144-.145c.072-.072-.072-.36-.072-.432.072-.072.36-.072.648-.144.144-.144.144-.36.216-.504 0-.216-.072-.288-.072-.359.072-.145.216-.145.288-.216.216-.144.072-.288.072-.288.144-.144.432-.144.432-.144.072-.144.144-.144.144-.144s.072-.144.216-.144zm-3.312 1.369c.288-.216.504-.072.648 0 .072 0 0 .216-.216.36-.072.144-.216.576-.432.72s-.36.216-.576.288c-.36.072-.432-.576-.288-.792.36-.072.36-.216.432-.288s.144-.216.432-.288z" /><path
   id="o"
   d="M46.86 39.457h47.736v44.064H46.86z" /><path
   id="a-3"
   d="M114.627 35.198c15.612 0 28.346 12.733 28.346 28.347 0 15.613-12.733 28.347-28.346 28.347S86.28 79.158 86.28 63.545c0-15.613 12.734-28.347 28.347-28.347z" /><path
   id="c-6"
   d="M86.28 35.198h56.692v56.693H86.28z" /><path
   id="e-7"
   d="M102.948 77.904c.359.072.432.072.504.145.144.144.359 0 .144-.288-.144-.36-.288-1.224-.504-1.512-.144-.288-.288-.72-.576-.504-.432.144-.576.072-.936.072-.288-.072-.576 0-.36.145.072.288.144.359.36.359.288.072.359.072.504.288.144.144.359.36.359.576 0 .432-.287.648.072.648.145 0 .216-.072.433.071zm-.144 1.368c.072.288.145 1.368.145 1.728 0 .144.144.504-.072.72-.145.288-.288.576-.072.72.145.144.288.072.504-.072.145-.216.216-.432.36-.504.288-.144.288-.504.216-.72 0-.288-.072-.864 0-1.08.072-.288.072-.648-.072-.72-.288-.072-.359-.288-.432-.432-.072-.288-.216-.36-.432-.288-.218.001-.218.217-.145.648zm18.504 3.889c-.216.072-.576.216-.576.504-.071.144-.071.216.145.36.288.216.504.288.792.36.359.216.576.216.792.216.072 0 .144-.072.144-.216 0-.144-.144-.576-.359-.864-.145-.288-.288-.432-.433-.432-.145-.072-.29-.072-.505.072zm-.072-10.296c2.159-1.584 3.672-3.168 4.68-4.248l5.544 1.8c0 .072-.072.144-.072.144 0 .216.072.504-.216 1.008s-.648.937-.864 1.008-.576.144-.936.504c-.288.216-.864.576-1.152 1.224-.216.216-.504 1.08-.936 1.512-.433.36-.792.72-1.225.864-.359.216-.575.288-1.151.288-.433 0-.576.216-.792.432-.072.216-.145.144-.288.36-.36.216-.504.288-.721.576-.287.072-.504.288-.647.576-.216.36-.433.792-.504 1.152-.145.288-.433.648-.576.936-.144.144-.576.36-.72.504-.072.144-.145.216-.217.432-.071.288-.071.504-.432.576-.216.072-.288.216-.432.36-.072.144-.145.288-.288.216-.216-.072-.36-.216-.433-.648-.071-.432-.287-1.296-.287-1.728 0-.288 0-.648.144-1.08.216-.432.36-.648.36-1.08.071-.36.071-.504 0-.792-.145-.216-.217-.36-.145-1.008 0-.216.36-.792.504-1.008v-.072c0-.288.288-.576.36-.792.144-.432.36-.792.432-1.008.145-.216.145-.288.216-.432.218-.144.434-.36.794-.576zm4.104-12.888c-.072-.216-.145-.576-.216-.792.144.072.36.072.576.216.216.36.432.432.792.576.144.144.359.36.576.432.071.216.359.36.575.792.145.504.145.864.216 1.152.072.144.36.576.504.864.145.144.36.576.793.648.287.072.575.216.792.216.071.144.359.216.432.216.144 0 .288.072.504.144.216.072 1.152.36 1.296.576.288.144.792.36.792.864.072.36 0 .72-.216 1.08-.072.144-.36.72-.648 1.008l-5.472-1.728c-.073-1.512-.432-3.673-1.296-6.264zm-3.24-1.657c1.225 2.592 1.872 5.256 2.088 8.424a18.666 18.666 0 0 1-3.815 3.744c-.145-.432-.36-.648-.504-.864-.288-.36-.505-.504-.721-.576-.288-.145-.504-.432-.647-.792-.36-.288-.648-1.008-.792-1.296-.145-.433-.36-.72-.36-1.296a5.828 5.828 0 0 1 0-1.584c.145-.504.432-1.296.504-1.368.145-.216.576-.72.648-.864.072-.216.216-.648.072-.864-.072-.216-.36-.647-.648-.72-.216-.144-.432-.144-.72-.216-.145-.072-.721-.288-.937-.576-.144-.072-.359-.288-.504-.432-.288-.288-.576-.576-.864-.576-.288-.072-.504-.145-.863-.216-.433-.216-.721-.288-1.152-.576-.216-.288-.36-.36-.647-.36-.288 0-.433-.288-.721-.576-.144-.144-.216-.144-.576-.576l-.287-.72c-.072-.216-.217-.432-.433-.648 1.224-.144 2.448-.288 3.888-.288-.144.144-.359.432-.72.72-.144.144-.288.432-.216.648 0 .288.072.288.144.504.145.144.288.216.648.216.144-.072.504-.144.647-.144.217 0 .433-.072.505.144.071.36.144.648.359.72.433.072.576.072.648.072.071.072.288.216.359.36.217.288.433.72.648.936.144.144.36.36.576.36.216.072.288.072.36.072.144 0 .432 0 .575.072.072.072.216.144.433.216.071.072.216.288.287-.072.145-.144.217-.576.505-.792.288-.144.359-.288.72-.288.288-.072.792-.144 1.08 0 .145-.071.36.001.433.072zm-7.632-6.336c-2.016 0-3.744.216-5.112.576l-.071-.072c-.072-.36-.216-.504-.505-.792-.287-.432-.863-1.008-1.224-1.512-.216-.288-.36-.864-.647-1.656-.288-.792-.648-1.944-.792-2.304-.145-.432-.576-.72-.864-.864-.432-.144-.576-.288-.72-.36.647-1.152 1.512-2.52 2.735-3.672.072.072.145.072.145.072.359.072 1.224.72 1.512.576.36-.144.936-.504 1.224-.648.433-.144.937-.288 1.368-.504.433-.072.721-.144.937 0 .216.288.792.36 1.008.216.36-.288.936-.432 1.368-.36h.647c.072.072.36.072.504.072.145.072.433.432.721.432.216 0 .575.072.432.288-.072.36-.36.504-.648.576-.216.072-.575.072-.936.288-.216.144-.648.432-.72.72-.217.216-.217.504 0 .72.288.145.647.216 1.008.288.288.072.647.072.936.288s.576-.144.721.288c.071.432.071.576.216.792.071.216.216.432.432.36.36-.072.504-.288.648-.648.144-.432.359-.792.504-1.08.071-.216.144-.36.071-.72 0-.216-.071-.288-.287-.504-.217-.145-.288-.36-.36-.648s.216-.36.432-.36c.145-.144.433 0 .864.072.432.145.576.216.72.504.145.288.36.36.433.72.072.288.216.647.288.72.216.072.359.144.647.072.145-.072 0 0 .145 0 .288-.072.359-.072.432.072.216.144.36.216.432.792 0 .576-.071.72-.216.936-.216.144-.359.216-.504.216-.216 0-.36 0-.432.072-.145 0-.216.216-.145.432 0 .144.36 1.008.36 1.296 0 .288.072.72-.36.72s-1.08.072-1.368.144c-.504.144-1.008.72-1.296 1.08-.216.288-.216.36-.359.504-.072.288-.216.504-.36.576-.288.072-.504.288-.648.36-.071.144-.216.216-.504.144-.216-.072-.575-.288-1.008-.144-.072 0-.432.648-.792.936-.292-.072-.652-.072-1.012-.072zm-9.361-11.376c-1.151.937-2.016 2.088-2.664 3.24h-.216c-.288 0-.575-.072-1.08.072a23.1 23.1 0 0 1-1.008.216c-.216.072-.36.216-.576.216-.144-.144-.071-.36-.071-.432.071-.145.359-.36 0-.504-.217-.072-.288-.216-.288-.432.071-.216.216-.576.575-.792.145-.216.433-.72.648-.864.288-.144.504-.504.72-.504.145.216.505-.144.792-.216.288-.072.792-.216 1.225-.216.432 0 .792 0 1.296.072.144.001.288.073.647.144z" /><path
   id="g-5"
   d="M99.204 40.393h33.84v44.208h-33.84z" /><path
   id="i-3"
   d="M69.838 35.198c15.613 0 28.347 12.733 28.347 28.347 0 15.613-12.733 28.347-28.347 28.347-15.613 0-28.346-12.734-28.346-28.347 0-15.613 12.733-28.347 28.346-28.347z" /><path
   id="k-5"
   d="M41.492 35.198h56.693v56.693H41.492z" /><path
   id="m-6"
   d="M80.771 59.977c-.864-2.592-1.872-4.536-2.664-5.832l4.464-6.048c1.728.216 4.248.576 6.696 2.088-.216.504-.36.792-.216 1.152.144.359-.144.647-.144.72 0 .144-.072.432-.072.504 0 .144-.072.576-.072.792 0 .144 0 .576-.144.72-.288.072-.36.36-.72.072-.36-.216-.504-.432-.864-.504-.216-.216-.288-.216-.433 0-.072.144-.359.36-.072.72.072.216.288.432.36.648.072.216.072.288 0 .432-.072.216-.216.36-.144.72.072.36.072.936.144 1.296 0 .288-.072.504-.144.648-.072.072-.072.288-.072.36 0 0-.072.288-.432.504-.288.144-.864.36-1.008.432-.216.288-.576.432-.432 1.152.072.432-.144 1.224-.072 1.296.072.144.144.576-.072.72-.36.072 0 0-.288.072-.145 0-.36.144-.216.576.144.216.216.72.216 1.08 0 .216-.36.504-.648.432-.36-.144-.792-.648-1.008-1.008-.072-.288-.288-1.008-.36-1.368-.072-.576-.72-.576-1.008-.864 0 0-.072 0-.072-.072-.214-.433-.358-.864-.503-1.44zM67.956 55.44c-.36.072-.576.36-.504.648.144.288.144.432.36.576.145.288.145.432 0 .504 0 .144 0 .432.145.72.072.216.144.504.504.432.432-.144.504-.359.576-.576.072-.144.072-.576.216-.648.072-.072.072-.36 0-.576-.216-.144-.576-.792-.792-.864-.073-.216-.289-.287-.505-.216zm-9.648 13.177c.864 1.008 2.376 2.448 4.392 3.96-.216.288-.648.864-.648 1.152 0 .36-.072 1.224-.216 1.44-.072.144-.504.576-.72 1.008-.072.216-.144.576-.36.864-.36.36-.432.72-.72.936-.504.36-.937.504-1.08.576-.216 0-.432 0-.648.072-.216.216-.864.216-1.152.216s-.648-.216-.72-.504c0-.433-.072-.648-.36-.937-.288-.288-.432-1.08-.576-1.439-.072-.288-.576-1.225-.72-1.512-.072-.216-.36-.864-.288-1.584.144-.432.36-1.08.36-1.584s0-1.08-.072-1.512l3.528-1.152zm6.192 6.768c.144.432.144.648-.072 1.152-.144.432-.36.864-.504 1.152-.288.216-.432.288-.792.216-.144-.072-.216-.288-.216-.647 0-.216.144-.648.144-.937 0-.288.432-.647.576-.647.072-.145.36-.288.576-.432.072-.145.288-.145.288.143zm24.336-1.441c.072 1.584-.072 3.456-.792 5.4-.36.432-.648.936-1.152 1.296a.562.562 0 0 0-.288-.288c-.432-.144-1.08-.432-1.439-.504-.288 0-.864 0-1.08.432-.144.216-.36.288-.648.288a.504.504 0 0 0-.504.432c-.072.288-.216.864-.576.864-.216.072-.864.072-.936.288-.072.145-.216.72-.504.937-.145.144-.288.432-.576.144-.288-.216-.432-.792-.576-.936-.072-.288-.216-.576-.36-.72-.216-.216-.432-.288-.432-.576 0-.504 0-.648-.144-.936-.144-.216-.432-.864-.432-1.152.145-.36.216-.864.432-1.008.144-.144.936-.936 1.08-1.152.144-.144.36-.432.36-.792.072-.216.072-.576.072-.937 0-.504-.072-.504.072-.648.216-.144.288-.144.504-.144.288 0 .432 0 .576-.288.144-.36.216-.792.504-1.08.144-.36.36-.432.576-.504.144-.072.504-.072.648-.072.144.072.144.144.216.216 0 .144.072.576.432.72.144.144.432.504.792.36.288-.144.36-.144.36-.432v-1.08c0-.288-.072-.648.216-.648s.432.216.648.36c.144.288.648.72.864.936.216.36.576.576 1.152.864.359.073.719.289.935.36zm2.088-5.4c.36.432.504.648.648.864.36.216.576.36.72.576.216.432.504.937.648 1.08.288.288.648.72.936.648.288 0 .288-.072.288-.36s0-.576-.36-1.008c-.432-.504-.792-.936-1.008-1.368-.288-.36-.648-1.008-1.08-1.08-.36-.144-.72-.216-.864 0-.216.145-.144.433.072.648zm-5.328-3.96c-.36.216-.432.576-.432.864 0 .432 0 .648.36.648.432.144.72 0 1.008-.144.216-.072.144-.36.144-.576 0-.144-.072-.72-.288-.864-.144-.072-.288-.287-.792.072zm-15.84-10.079c2.304 0 4.392.288 6.192.72 1.152 2.088 2.088 4.032 2.736 6.048-.288.216-.576.36-.647.432-.145.072-.433.288-.648.648-.144.288-.576.936-.936 1.08-.216.216-.72.432-.72.792 0 .288-.144.936-.216 1.152-.072.36-.288 1.08-.576 1.08-.288.072-.288.072-.504-.216-.072-.288-.36-.864-.864-1.224-.216-.36-.792-1.152-.864-1.368-.072-.288-.144-1.008-.432-1.296-.288-.504-.576-.576-.864-.864-.36-.288-.72-.576-1.008-.936-.36-.432-.72-.648-1.296-.72-.648 0-.792 0-1.008.072-.36.145-.576.216-.576.648 0 .216-.072.432.072.576.216.144.72.792 1.08.864.288.072.648.36.72.504.216.072.576.504.576.72 0 .144-.072.36-.36.576-.216.144-.72.576-1.368.72-.72.072-1.512.288-1.8.144-.144-.072-.216-.288-.216-.72.072-.288 0-.72-.144-1.008-.288-.288-.576-1.08-.72-1.512-.072-.432-.288-1.008-.648-1.368-.288-.216-.648-.36-1.008-.288-.216.072-.288.288-.288.648-.072.288 0 .792.072 1.296.072.288.144.792.144 1.08s.144 1.296.288 1.656c.072.288.504 1.296.576 1.512.216.144.36.576.648.648.288.144.36.144.576.144.288 0 .72 0 .72.144s.144.36-.072.504c-.145.288-.145.432-.216.504-.072.072-.36.36-1.296.792-.216.072-.36.72-.432 1.008-.072.145-.216.504-.432.864-1.368-1.008-2.664-2.304-3.96-3.816.216-3.312.936-5.976 2.16-8.64.576 0 1.728 0 1.872.144.216-.072.72-.144 1.008-.216.288-.144.504-.36.504-.864 0-.576-.145-.792-.504-.864-.36 0-1.008.072-1.728-.216.072-.288.216-.576.36-.864a25.26 25.26 0 0 1 6.047-.72zM93.3 51.841c0 .216-.144.792-.432 1.224-.144.576-.648 1.008-.936 1.296-.432.145-.576.432-.792.792-.288.145-.648.288-.648.576-.144.144.072.144.216.144.216.072.432 0 .576 0 .144-.072.576-.216.648.072.144.36.432.432.576 0 0-.216.216-.576.432-.72.288-.288.864-.792 1.08-1.224.145-.36.576-1.224.504-1.872 0-.72-.288-1.08-.36-1.152-.145-.144-.36-.432-.576.072-.072.288-.216.36-.288.792zm-42.552-1.8l.144-.072c.216-.072.576-.072.864-.072.36.144.576.216.72.288.216.144.36.216.504 0 .072-.144.216-.144.433-.144.288 0 .359 0 .359-.216 0-.288 0-.648-.144-1.08.504-.144 1.08-.288 1.512-.36.216.072.288.072.36.144.144.072.216.216.792.216.432 0 .576-.072.792-.072.072 0 .216 0 .36-.072l4.104 5.544c-.216.288-.288.504-.504.792-.216-.144-.72-.288-.792-.792-.072-.36-.216-.792-.288-1.008-.144-.144-.576-.792-.792-1.08-.216-.216-.504-.792-.864-1.008-.288-.216-.576-.072-.576.144.072.216 0 .432.288.648 0 .144.072.216.072.36 0 .288.072.432.144.648.144.216.72.792.792.936.144.144.288.288.288.36-.144.216-.144.288-.216.216-.144-.216-.216-.288-.432-.288-.144 0-.216 0-.216.072 0 .288-.072.576-.144.792-.072.288-.576.72-.72.504-.072-.072-.072-.216 0-.504 0-.288.072-.576 0-1.008-.072-.432-.288-.72-.504-.864-.288-.288-.36-.72-.432-1.08-.144-.288-.216-.792-.576-.792h-.72c-.288.072-.432.072-.504.216-.144.288-.144.432-.647.504-.504.072-.864 0-.864.288s-.144.576-.432.576c-.432 0-.72-.072-.936.216-.36.144-.432.432-.576.216-.072-.072-.072-.072-.288-.144-.432-.288-.576-.288-.648-.36-.144-.144-.36-.504-.288-.648.072-.216.288-.936.36-1.008v-.72c0-.144.143-.216.215-.288zm8.136 9.936c-.792 2.592-1.224 4.752-1.296 6.264l-3.384 1.08c0-.288.072-.576.072-.792.144-.288.144-.647-.144-.936-.144-.216-.288-.144-.432-.144-.144-.072-.576-.216-.72-.36-.072-.288-.216-.504-.647-.504-.288 0-.72-.072-1.224.072-.576.072-.36.36-1.008.144-.648-.144-.936-.288-1.296-.576-.288-.288-.504-.432-.936-1.152-.288-.648-.288-.72-.504-1.08-.288-.144-.36-.36-.36-.72 0-.288-.144-1.008 0-1.44.36-.504.72-1.152.792-1.512 0-.288.432-.936.648-1.152.216-.216.36-.504.432-.648.216-.072.72-.36.864-.576.288-.072.576-.504.72-.576.216-.072.504-.216.648-.36.216-.072.288-.216.36-.288.072 0 .144-.144.504 0 .144.072.432.288.936.288.288 0 .72.144 1.08 0 .288-.072.648-.072.864 0 .145.144.288.216.648.432.144.288.36.432.288.72-.072.216-.145.288-.072.432.144.432.36.504.576.576.072.072.792 0 .864.144.216.072.576.576.864.576.145 0 .288.072.432-.216.288-.288.504-.432.72-.36.144 0 .36.072.648.144-.361.72-.721 1.656-.937 2.52zm30.744-11.953c-2.088-1.296-4.392-2.16-6.768-2.304-.864-1.944-2.16-3.672-3.672-5.184.288-.144.432-.36.576-.36.216-.144.288-.288.648-.288.359 0 .504 0 1.008.144.288.144.648.36 1.152.216.36-.072.504 0 .72-.072.144-.072.648-.36.864-.432a1.01 1.01 0 0 1 .504-.288c1.944 1.152 3.672 2.664 5.4 4.32-.072.072-.216.145-.216.288-.432.576-.792.72-.936.936-.072.216-.432.504-.432.864s-.144.576.216.576c.36.072.792.072.936.216.072.144.432.36.216.864-.144.216-.216.289-.216.504zm-19.872 3.96c-2.664 0-4.896.504-6.264.792l-3.888-5.256c.216-.072.433-.072.576 0 .216.144.288 0 .648.216.432.145 1.008.145 1.224.145.144 0 .576 0 .792.144.216 0 .864-.144 1.08-.288.288-.216.144-.36.072-.504-.072-.216-.36-.576.072-.864.288-.36.648-.432.864-.864.216-.432.144-.792 0-.937-.144-.072-.432-.072-.576.072-.288.072-.36.216-.72.144-.072 0-.504.072-.72.216-.072.072-.504.36-.792.72-.072.216-.288 1.008-.504 1.08-.504.072-1.296-.216-1.225-.792.072-.216.36-.504.288-.648-.216-.216-.288-.288-.504-.216h-.432c.36-.576.72-1.296 1.224-1.944.144-.072.36-.144.648-.144.359-.216 1.728-.576 1.944-.72.36-.145 1.08-.36 1.152-.433.072-.072.216-.072.432 0 .216 0 .648.145 1.08-.216.216-.288.504-.288.72-.144.288.359.288.647.576.647.432 0 .72.145.72.864-.072.504-.288.648-.288.864 0 .216 0 .792.288.792.216 0 .432-.072.504-.072.072 0 .144-.144.216-.144.144 0 .648-.288.792-.504.216-.288.72-.792 1.008-.864.288 0 .72.144 1.008-.288.216-.36.504-.504.648-.504.216 0 .216-.145.432 0 .216.144.792.072.937-.145.288-.072.288-.144.504-.144.648 0 .792.144 1.008-.145.216-.359.216-.359.576-.359.216 0 .288 0 .432.432.072.216.36.216.36.504s0 .648.144.72c.145 0 .433 0 .72-.36.072-.072.216-.288.36-.504a18.836 18.836 0 0 1 2.736 4.248l-4.464 6.192c-1.44-.284-3.6-.789-6.408-.789zM56.652 41.4c.072 0 .288.072.288.072-.072.072-.216.072-.288.216 0 .144.288.216.216.288-.072.072-.36.216-.504.432-.144.288 0 .648-.144.864-.144.072-.216.072-.216.144h.288c.072.144.072.36 0 .432 0 .144-.072.216-.288.288a4.37 4.37 0 0 0-.36.216c0 .144.432.144.36.216 0 .288-1.008.288-1.224.432-.792.072-1.368.432-1.368.144-.072-.36 1.224-.648 1.224-.792 0 0-.144 0-.216-.144-.144 0-.216-.072-.144-.144 0-.072.36-.144.36-.144s.144-.072.144-.145c.072-.072-.072-.36-.072-.432.072-.072.36-.072.648-.144.144-.144.144-.36.216-.504 0-.216-.072-.288-.072-.359.072-.145.216-.145.288-.216.216-.144.072-.288.072-.288.144-.144.432-.144.432-.144.072-.144.144-.144.144-.144s.072-.144.216-.144zm-3.312 1.369c.288-.216.504-.072.648 0 .072 0 0 .216-.216.36-.072.144-.216.576-.432.72s-.36.216-.576.288c-.36.072-.432-.576-.288-.792.36-.072.36-.216.432-.288s.144-.216.432-.288z" /><path
   id="o-2"
   d="M46.86 39.457h47.736v44.064H46.86z" /></defs><g
     inkscape:label="Camada 1"
     inkscape:groupmode="layer"
     id="layer1"><g
       id="g4946"
       transform="translate(3.617058,20.310403)"><path
         d="m 252.38294,274.71086 c 70.37403,0 127.42429,-56.9447 127.42429,-127.18963 0,-70.244951 -57.05026,-127.189651 -127.42429,-127.189651 -70.37453,0 -127.42429,56.9447 -127.42429,127.189651 0,70.24493 57.04976,127.18963 127.42429,127.18963 z"
         fill="#000000"
         id="path1890"
         style="fill:#003592;fill-opacity:1;stroke:none" /><path
         d="m 336.16338,167.97969 h 3.24971 v 0.56915 h -1.2827 v 2.76002 h -0.65566 v -2.76002 h -1.28272 v -0.56915 z m -151.96836,12.77619 h -7.32621 c -1.6534,0 -2.45157,-0.91068 -2.45157,-2.70342 v -2.90248 c 0,-0.82481 0.19946,-1.50783 0.68414,-2.04836 0.42763,-0.54056 1.02632,-0.79687 1.79601,-0.79687 h 5.7583 c 1.36833,0 2.28045,0.65441 2.67957,1.99181 l 0.7982,2.78863 h 5.27351 v -3.07354 c 0,-2.0484 -0.68427,-3.75591 -2.05223,-5.12129 -1.39691,-1.36601 -3.10729,-2.04903 -5.1027,-2.04903 h -8.52349 c -1.99547,0 -3.76282,0.71163 -5.18817,2.13422 -1.3968,1.42263 -2.10944,3.13017 -2.10944,5.12194 v 4.95086 c 0,2.0204 0.71264,3.75592 2.10944,5.17854 1.45383,1.42261 3.1927,2.13423 5.18817,2.13423 h 7.35469 c 1.62492,0 2.45158,0.93866 2.45158,2.78863 v 3.75591 c 0,0.7962 -0.22811,1.47922 -0.65566,2.01978 -0.45611,0.54056 -1.05472,0.79684 -1.79592,0.79684 h -5.84386 c -1.48232,0 -2.36597,-0.683 -2.73656,-1.96318 l -0.76967,-3.1581 h -5.30221 v 3.41441 c 0,2.07699 0.68415,3.78389 2.05244,5.14991 1.36833,1.36601 3.0787,2.049 5.13117,2.049 h 8.63749 c 1.99541,0 3.73437,-0.7116 5.15994,-2.13422 1.39655,-1.39464 2.10946,-3.13014 2.10946,-5.17853 v -5.80496 c 0,-1.99177 -0.71291,-3.69867 -2.13807,-5.14991 -1.48251,-1.4512 -3.19289,-2.19082 -5.18835,-2.19082 z m 35.17714,-11.7517 c 1.42516,1.394 2.13804,3.12951 2.13804,5.09331 v 7.22693 c 0,2.02041 -0.71288,3.72793 -2.13804,5.15055 -1.45378,1.42261 -3.19311,2.13358 -5.21671,2.13358 h -9.49277 v 12.60577 h -6.07204 v -34.34438 h 15.56481 c 2.0236,0 3.76293,0.68302 5.21671,2.13424 z m -3.9626,6.20305 c 0,-0.82546 -0.22757,-1.47987 -0.68429,-2.02042 -0.45597,-0.54054 -1.05439,-0.79683 -1.73868,-0.79683 h -8.29529 v 10.67056 h 8.29529 c 0.71291,0 1.31133,-0.28489 1.73868,-0.79683 0.4566,-0.54055 0.68429,-1.19496 0.68429,-2.02042 z m 60.548,11.80829 6.04339,14.1988 h -6.47076 l -5.61605,-13.43058 h -5.78713 v 13.43058 h -6.10002 v -34.34438 h 15.22268 c 2.05223,0 3.76229,0.71162 5.18806,2.13424 1.42517,1.394 2.13806,3.12951 2.13806,5.09331 v 6.00337 c 0,1.56506 -0.42797,2.98767 -1.2827,4.23984 -0.85536,1.19496 -1.99559,2.07703 -3.33553,2.67482 z m -1.45379,-11.80829 c 0,-0.82546 -0.19973,-1.47987 -0.65565,-2.02042 -0.428,-0.54054 -1.02642,-0.79683 -1.73868,-0.79683 h -7.95383 v 9.81649 h 7.95383 c 0.71226,0 1.28269,-0.25568 1.73868,-0.76821 0.42736,-0.54057 0.65565,-1.19497 0.65565,-2.01978 z m 9.94877,-2.81725 h 8.75127 v 28.79573 h 6.10067 v -28.79573 h 8.83712 v -5.54865 h -23.66045 v 5.54865 z m 43.90014,8.3659 h -7.32612 c -1.62486,0 -2.45157,-0.91068 -2.45157,-2.70342 v -2.90248 c 0,-0.82481 0.22758,-1.50783 0.65566,-2.04836 0.42736,-0.54056 1.05439,-0.79687 1.79591,-0.79687 h 5.78649 c 1.36855,0 2.25189,0.65441 2.67988,1.99181 l 0.79811,2.78863 h 5.30191 v -3.07354 c 0,-2.0484 -0.71226,-3.75591 -2.08082,-5.12129 -1.39654,-1.36601 -3.10725,-2.04903 -5.13082,-2.04903 h -8.49501 c -2.02422,0 -3.7629,0.71163 -5.16008,2.13422 -1.42515,1.42263 -2.13806,3.13017 -2.13806,5.12194 v 4.95086 c 0,2.0204 0.74152,3.75592 2.13806,5.17854 1.39718,1.42261 3.13586,2.13423 5.16008,2.13423 h 7.32612 c 1.65347,0 2.45159,0.93866 2.45159,2.78863 v 3.75591 c 0,0.7962 -0.22838,1.47922 -0.65566,2.01978 -0.45598,0.54056 -1.05504,0.79684 -1.79593,0.79684 h -5.84371 c -1.45443,0 -2.36636,-0.683 -2.73712,-1.96318 l -0.79812,-3.1581 h -5.3019 v 3.41441 c 0,2.07699 0.68427,3.78389 2.05219,5.14991 1.39719,1.36601 3.07863,2.049 5.16009,2.049 h 8.60883 c 2.0522,0 3.76291,-0.7116 5.21669,-2.13422 1.42516,-1.39464 2.13806,-3.13014 2.13806,-5.17853 v -5.80496 c 0,-1.99177 -0.7129,-3.69867 -2.1953,-5.14991 -1.42516,-1.4512 -3.13586,-2.19082 -5.15945,-2.19082 z m 15.02302,-12.77619 -1.31135,2.02039 -1.31132,-2.02039 h -0.57044 v 3.32917 h 0.57044 v -2.04902 c 0,-0.11384 -0.0573,-0.22703 -0.0573,-0.36948 0.0573,0.11385 0.14244,0.25569 0.19973,0.3415 l 1.08302,1.65027 h 0.11384 l 1.05502,-1.62229 c 0.0851,-0.11384 0.11384,-0.22703 0.17108,-0.36948 -0.0286,0.17055 -0.0286,0.28426 -0.0286,0.36948 v 2.04902 h 0.59907 v -3.32917 z m -94.87013,0.99586 c 1.45378,1.39403 2.16667,3.13017 2.16667,5.12194 v 19.74684 c 0,2.07702 -0.68427,3.81314 -2.16667,5.23577 -1.42516,1.42262 -3.13586,2.13422 -5.18806,2.13422 h -8.21009 c -2.05222,0 -3.7909,-0.7116 -5.21668,-2.13422 -1.42515,-1.39464 -2.13806,-3.13014 -2.13806,-5.23577 v -19.74684 c 0,-1.9638 0.74149,-3.69931 2.13806,-5.09331 1.42578,-1.42262 3.16446,-2.13424 5.21668,-2.13424 h 8.21009 c 2.0522,0 3.73427,0.68302 5.18806,2.10561 z m -3.90537,6.23168 c 0,-0.82546 -0.22757,-1.47987 -0.71226,-2.02042 -0.45659,-0.54054 -1.02642,-0.79683 -1.73932,-0.79683 h -5.84372 c -0.7695,0 -1.33994,0.25621 -1.79592,0.79683 -0.42736,0.54055 -0.65566,1.19496 -0.65566,2.02042 v 17.61258 c 0,0.79686 0.19974,1.45123 0.65566,1.99179 0.45598,0.56918 1.05505,0.85408 1.79592,0.85408 h 5.84372 c 0.7129,0 1.28273,-0.2849 1.73932,-0.85408 0.4846,-0.54056 0.71226,-1.19493 0.71226,-1.99179 z m 25.65607,-96.004207 h -65.50776 l -10.006,15.905883 65.47915,-0.02859 z m 24.80071,47.660697 h -9.80632 l -10.0626,15.93433 h 29.96014 l 10.0626,15.87707 h 19.12808 L 283.65444,78.633972 242.94675,142.79805 h -44.52717 l 10.20567,-15.90571 h 27.65103 L 246.3675,110.986 h -61.68791 l -10.06279,15.90634 h 14.79518 l -20.18286,31.81141 82.95416,-0.0286 31.47116,-49.87996 z"
         fill="#ffffff"
         id="path1892"
         style="stroke-width:6.35948" /></g><path
       style="fill:#003592;fill-opacity:1;stroke-width:0.39143"
       id="path867"
       d="M 60.285166,322.04911 V 450.43408 H 100.83603 V 404.0782 h 28.17604 l 10.95365,-28.06164 h -39.12969 v -26.05035 h 47.62649 l 10.38762,-27.9171 H 60.285166 m 110.963884,0 -0.0722,128.38497 h 40.08118 V 322.04911 h -40.00889 m 197.29858,86.44909 15.43983,-53.45561 15.99391,53.45561 z m 36.90155,-86.44909 h -41.61664 l -46.14514,128.39701 h 38.73832 l 4.98607,-17.26452 h 45.15756 l 5.22079,17.26452 h 39.9246 L 405.44922,322.04911 m -166.51501,0 V 450.43408 H 279.461 V 404.0782 h 28.14595 L 318.6389,376.01656 H 279.461 v -26.05035 h 47.64456 l 10.46593,-27.9171 h -98.63728"
       fill-rule="evenodd"
       fill="#093697" /><path
       style="fill:#003592;fill-opacity:1;stroke:none;stroke-width:0.00390625"
       d=""
       id="path5363" /><path
       style="fill:#003592;fill-opacity:1;stroke:none;stroke-width:0.00390625"
       d=""
       id="path5365" /><path
       style="fill:#003592;fill-opacity:1;stroke:none;stroke-width:0.00390625"
       d=""
       id="path5367" /><path
       style="fill:#003592;fill-opacity:1;stroke:none;stroke-width:1.41421"
       d="m 229.88716,291.50539 c -38.83063,-8.49634 -73.05514,-35.99237 -89.24587,-71.70024 -8.12753,-17.92489 -10.37036,-29.03519 -10.39907,-51.51374 -0.0309,-24.15123 1.93949,-33.37496 11.47973,-53.74011 21.22848,-45.315551 64.21617,-72.621385 114.32816,-72.621385 57.3296,0 104.77306,35.824205 121.84062,92.000935 3.32412,10.94116 3.78961,14.91131 3.86288,32.94635 0.0636,15.6764 -0.53201,22.80954 -2.52922,30.28615 -12.47111,46.68603 -45.54172,80.12798 -92.06158,93.09534 -14.60791,4.07195 -41.67129,4.66102 -57.27565,1.2467 z M 193.3598,219.69102 c 2.79874,-2.53282 3.56341,-12.30995 1.24888,-15.96832 -0.71172,-1.12497 -4.36125,-2.39776 -8.11007,-2.82843 -5.70455,-0.65536 -6.88973,-1.30194 -7.26795,-3.96503 -0.38529,-2.7129 0.19458,-3.18198 3.93348,-3.18198 2.59352,0 4.71799,0.86677 5.19941,2.12132 0.44771,1.16672 2.33693,2.12132 4.19826,2.12132 4.09824,0 4.66361,-4.72755 1.04372,-8.72748 -2.75497,-3.04421 -17.20667,-3.68657 -20.00407,-0.88917 -0.93338,0.93338 -1.69706,4.71566 -1.69706,8.40509 0,8.01879 3.26362,11.11105 11.72674,11.11105 4.83314,0 5.39009,0.35525 4.98863,3.18198 -0.34636,2.43881 -1.52538,3.28549 -5.0481,3.62514 -3.41447,0.32922 -4.5962,-0.1253 -4.5962,-1.76777 0,-1.41551 -1.27196,-2.21092 -3.53553,-2.21092 -2.92945,0 -3.53554,0.67882 -3.53554,3.9598 0,2.17789 0.76368,4.72347 1.69706,5.65685 2.60834,2.60835 16.67121,2.15037 19.75834,-0.64345 z m 15.31416,-4.02345 v -6.36396 h 6.26294 c 8.26975,0 10.70762,-2.57587 10.70762,-11.31371 0,-9.62283 -2.1287,-11.31371 -14.24315,-11.31371 h -9.79848 v 17.67767 17.67767 h 3.53553 c 3.24745,0 3.53554,-0.51855 3.53554,-6.36396 z m 44.46753,3.22085 c 1.5502,-2.21321 2.20151,-6.51324 2.20151,-14.53456 0,-15.37574 -1.63099,-17.67767 -12.52527,-17.67767 -4.46723,0 -8.88592,0.76367 -9.8193,1.69706 -2.31979,2.31979 -2.31979,29.64143 0,31.96122 0.93338,0.93338 5.35207,1.69706 9.8193,1.69706 6.79012,0 8.48332,-0.5155 10.32376,-3.14311 z m 14.92943,-3.22085 c 0,-5.26655 0.45462,-6.36396 2.6363,-6.36396 1.82163,0 3.38735,1.96659 5.06671,6.36396 2.11298,5.53275 2.96929,6.36396 6.5561,6.36396 2.26912,0 4.12567,-0.23731 4.12567,-0.52733 0,-0.29004 -1.30738,-3.48289 -2.90529,-7.09523 -2.62762,-5.94019 -2.69521,-6.77797 -0.70711,-8.76607 2.94987,-2.94985 2.86202,-13.06073 -0.14232,-16.38048 -1.83319,-2.02566 -4.43872,-2.58623 -12.02082,-2.58623 h -9.6803 v 17.67767 17.67767 h 3.53553 c 3.24745,0 3.53553,-0.51855 3.53553,-6.36396 z m 35.35534,-7.77818 v -14.14213 h 4.24264 c 3.58267,0 4.24265,-0.54998 4.24265,-3.53554 0,-3.49394 -0.14143,-3.53553 -12.02082,-3.53553 -11.87939,0 -12.02082,0.0416 -12.02082,3.53553 0,2.98556 0.65998,3.53554 4.24265,3.53554 h 4.24264 v 14.14213 14.14214 h 3.53553 3.53553 z m 34.18333,11.80163 c 3.45815,-3.12958 3.52737,-13.34135 0.1113,-16.42776 -1.36118,-1.22984 -5.02046,-2.44216 -8.13173,-2.69406 -4.62036,-0.37406 -5.73966,-1.04101 -6.10877,-3.63996 -0.38529,-2.7129 0.19457,-3.18198 3.93347,-3.18198 2.59352,0 4.718,0.86677 5.19941,2.12132 1.27209,3.315 7.58249,2.72652 7.58249,-0.70711 0,-2.19989 0.94281,-2.82843 4.24264,-2.82843 2.9199,0 4.24264,-0.69508 4.24264,-2.22946 0,-1.7223 -1.27312,-2.13754 -5.59661,-1.82537 -3.07813,0.22224 -6.04798,-0.0472 -6.59967,-0.59898 -1.68093,-1.68097 -16.82248,-1.11703 -18.63352,0.69402 -2.54387,2.54387 -2.153,14.54879 0.54665,16.7893 1.23405,1.02416 4.89332,2.21577 8.13173,2.64803 4.68324,0.62511 5.88802,1.36466 5.88802,3.61435 0,3.67288 -7.60951,4.89953 -9.49489,1.53056 -0.68873,-1.23072 -2.82374,-2.23767 -4.74446,-2.23767 -3.09209,0 -3.38577,0.44558 -2.56315,3.88909 0.51097,2.139 1.55563,4.68458 2.32142,5.65685 2.12524,2.69822 16.52179,2.27909 19.67303,-0.57274 z M 271.61335,155.5525 c 8.29228,-13.22895 15.54393,-23.76396 16.1148,-23.41115 0.57087,0.35282 3.0374,3.85794 5.48118,7.78917 l 4.44325,7.14769 h -4.84788 c -4.33236,0 -5.37883,0.83003 -9.84107,7.80563 -2.74627,4.2931 -4.99321,8.11148 -4.99321,8.48529 0,0.3738 6.86589,0.67964 15.25754,0.67964 h 15.25755 l 4.71406,7.77818 4.71407,7.77817 h 10.47915 10.47914 l -1.81292,-3.33916 c -6.90221,-12.7129 -48.75874,-77.119453 -49.8962,-76.777579 -0.77782,0.233776 -10.32376,14.507409 -21.21321,31.719189 l -19.79899,31.29414 -20.85965,0.0664 c -11.4728,0.0365 -20.85965,-0.22583 -20.85965,-0.58304 0,-0.3572 1.74546,-3.53918 3.87879,-7.07107 l 3.87879,-6.4216 14.15244,-0.0401 14.15243,-0.0401 4.94975,-8.05518 c 2.72236,-4.43035 5.16188,-8.54888 5.42115,-9.15228 0.25927,-0.6034 -13.81009,-1.09709 -31.26524,-1.09709 h -31.73664 l -5.15076,8.34489 c -2.83292,4.58968 -5.15076,8.72626 -5.15076,9.19238 0,0.46613 2.86378,0.8475 6.36396,0.8475 3.50018,0 6.36396,0.34104 6.36396,0.75786 0,0.41682 -3.70687,6.62168 -8.23749,13.78858 -4.53063,7.1669 -8.70476,13.82622 -9.27586,14.79849 -0.82115,1.398 7.83057,1.76777 41.36116,1.76777 h 42.3995 z m -2.42702,-47.08034 c 2.4978,-4.12134 4.54145,-7.93972 4.54145,-8.48528 0,-0.545563 -14.9034,-0.991931 -33.11868,-0.991931 h -33.11867 l -3.21136,5.303301 c -1.76625,2.91682 -4.11873,6.73519 -5.22774,8.48528 l -2.01638,3.18198 h 33.80497 33.80497 z"
       id="path5369" /><path
       style="fill:#003592;fill-opacity:1;stroke:none;stroke-width:0.0625"
       d=""
       id="path5373" /></g></svg>
