<?xml version="1.0" encoding="UTF-8" standalone="no"?>
<!-- Created with Inkscape (http://www.inkscape.org/) -->

<svg
   width="512.0px"
   height="512.0px"
   viewBox="0 0 512.0 512.0"
   version="1.1"
   id="SVGRoot"
   sodipodi:docname="freefire.svg"
   xml:space="preserve"
   inkscape:version="1.2.2 (b0a8486541, 2022-12-01)"
   xmlns:inkscape="http://www.inkscape.org/namespaces/inkscape"
   xmlns:sodipodi="http://sodipodi.sourceforge.net/DTD/sodipodi-0.dtd"
   xmlns="http://www.w3.org/2000/svg"
   xmlns:svg="http://www.w3.org/2000/svg"><sodipodi:namedview
     id="namedview14"
     pagecolor="#ffffff"
     bordercolor="#000000"
     borderopacity="0.25"
     inkscape:showpageshadow="2"
     inkscape:pageopacity="0.0"
     inkscape:pagecheckerboard="0"
     inkscape:deskcolor="#d1d1d1"
     inkscape:document-units="px"
     showgrid="true"
     inkscape:zoom="1.5878906"
     inkscape:cx="275.83764"
     inkscape:cy="269.85486"
     inkscape:window-width="1920"
     inkscape:window-height="1016"
     inkscape:window-x="0"
     inkscape:window-y="0"
     inkscape:window-maximized="1"
     inkscape:current-layer="g1967"><inkscape:grid
       type="xygrid"
       id="grid20" /></sodipodi:namedview><defs
     id="defs9" /><g
     inkscape:label="Camada 1"
     inkscape:groupmode="layer"
     id="layer1"><g
       style="image-rendering:optimizeQuality;shape-rendering:geometricPrecision;text-rendering:geometricPrecision"
       id="g1967"
       transform="matrix(0.81697448,0,0,0.81697448,16.966868,204.8672)"><path
         class="st0"
         d="m 408.3,10.2 c 2.2,9.1 2.7,14.5 3.4,40.8 0.3,16.6 0.8,30.5 0.9,30.5 0,0.1 1.3,0.6 2.9,0.9 3.9,1 3.6,4 -1.1,8.5 l -3.9,3.8 v 14.5 c 0,12.9 -0.2,14.4 -1.8,13.8 -1.5,-0.6 -1.7,-0.1 -1.3,2 0.3,1.6 0.1,3.5 -0.3,4.3 -0.7,0.9 -1,0 -1,-2.7 0,-2.2 0.6,-4.5 1.1,-4.8 0.9,-0.6 0.8,-1.2 -0.1,-2.4 -0.7,-0.9 -1,-1.9 -0.6,-2.4 0.3,-0.3 0.7,0 0.7,0.8 0,0.8 0.2,1.2 0.6,0.9 0.8,-0.7 -2.7,-7.6 -3.9,-7.6 -0.4,0 -1.5,1.5 -2.2,3.4 -0.8,1.8 -2,3.4 -2.7,3.4 -0.7,0 -0.4,0.6 0.4,1.2 1.3,0.9 1.1,1 -0.8,0.4 -1.6,-0.4 -2.6,-0.2 -2.6,0.6 0,0.7 -0.4,0.9 -1.1,0.6 -0.7,-0.4 -1.1,0.8 -1.1,2.7 0,2 -0.6,3.5 -1.3,3.5 -1,0 -1.6,-3.1 -1.8,-11.4 -0.2,-8.1 0.1,-11 1,-10.5 0.9,0.6 0.9,0.1 0,-1.6 -0.7,-1.2 -1.2,-4 -1.2,-6.1 0,-2.8 -0.9,-4.7 -3.4,-7.1 -4.2,-3.9 -4.5,-7.3 -0.8,-7.3 3.4,0 8.7,-5.5 8.7,-9 0,-2.5 -0.1,-2.6 -2.2,-0.6 -3.4,3 -3.8,1.3 -0.6,-1.7 1.6,-1.5 2.8,-3.9 2.8,-5.4 0,-2.7 -0.1,-2.7 -2,-1 -3.4,3.1 -4.3,2.1 -1.1,-1.2 3.4,-3.6 5.3,-10.3 2.1,-7.8 -3.7,3.3 -5.1,3.3 -2,0 1.8,-2 3,-4.5 3,-6.5 v -3.1 l -3,2.7 -3.1,2.7 3.1,-3.5 c 1.8,-2 3,-4.7 3,-6.6 0,-3 -0.1,-3 -2,-1.3 -2.9,2.6 -3.1,2.5 -3.1,-2.4 -0.3,-13.6 2.7,-24.3 9,-31.6 1.3,-1.5 1.7,-2.4 0.8,-1.8 -1,0.6 -1.3,0.4 -0.8,-0.3 0.4,-0.8 1.6,-1.3 2.5,-1.3 0.9,0 1.5,-0.4 1.1,-1 -0.6,-0.9 0.8,-2 2.8,-2.2 0.1,-0.1 1.5,4.6 3,10.2 z"
         id="path1955" /><path
         d="m 272.8,15.5 c 0.9,0.1 1.2,4.2 1.1,12.6 l -0.1,12.5 -16,-0.1 -16.1,-0.2 v 19.2 h 30.4 v 24.7 h -30.4 v 18 l 8.8,0.1 c 4.7,0 12,0 16.3,-0.1 l 7.5,-0.1 v 6.5 c -0.1,6.3 -0.1,6.4 -2,4.3 -3.5,-3.9 -8.8,-3.4 -9.4,0.9 -0.2,1.3 -1.1,2.6 -2,2.6 -0.9,0.1 -2.4,0.2 -3,0.3 -0.8,0 -1.5,1.1 -1.5,2.4 0,1.8 -0.7,2.1 -4.2,2 -2.3,-0.1 -4.4,0.5 -4.6,1.1 -0.8,2.4 -2.1,1.5 -2.8,-1.9 -0.7,-2.9 -1,-3.1 -5.5,-2.9 -2.7,0.1 -6,0.8 -7.4,1.6 -2.2,1.2 -2.9,1.1 -3.9,-0.3 -0.9,-1.1 -2.2,-1.6 -3.8,-1.1 -2,0.6 -2.6,1.6 -2.6,4.5 0,2 -0.4,4 -1.1,4.4 -0.6,0.3 -1.1,-0.1 -1.1,-1.1 0,-1.2 -0.6,-1.7 -1.6,-1.3 -2.4,0.9 -2.6,-4 -2.6,-59 l -0.2,-49.4 14.5,0.1 c 8,0 14.2,0.4 13.9,1 -0.3,0.4 -0.1,1.1 0.6,1.6 0.6,0.3 1.1,0 1.1,-0.8 0,-1.2 2.4,-1.6 9.7,-1.7 5.3,-0.1 9.8,-0.3 10,-0.6 0.2,-0.2 1.9,-0.3 3.6,-0.2 1.7,0.2 3.7,0.4 4.4,0.4 z m 61,0.5 c 14.5,0.1 17.9,0.4 19.1,1.8 1.2,1.6 1.3,1.6 0.8,0 -0.6,-1.5 0.4,-1.8 5.6,-2 3.4,-0.1 6.2,0.2 6.3,0.7 0.3,4 0.4,20.5 0.1,21.9 -0.4,1.7 -2.4,2 -16.4,2.2 l -15.9,0.3 v 18 l 14.4,0.3 14.3,0.3 V 84.2 L 351.2,84.1 C 345.1,84 338.6,84 336.8,84 l -3.4,0.1 0.2,16.4 c 0.2,13.4 0,16.6 -1.3,18.1 -0.9,0.9 -1.5,2.1 -1.1,2.7 0.7,0.9 -0.9,1.5 -3,1.1 -0.6,0 -0.9,0.4 -0.9,1 0,0.7 -1,1.1 -2.2,1.1 -1.8,0 -2.2,-0.8 -2.4,-4.3 -0.1,-2.2 -0.1,-4.5 0,-5.1 0.1,-0.4 -1.3,-1.1 -3.3,-1.6 -1.9,-0.3 -3.4,-1.2 -3.3,-1.9 0.4,-3.7 -0.3,-6.3 -1.8,-6.3 -1,0 -2,-0.8 -2.4,-1.7 -0.4,-0.9 -1.6,-1.7 -2.7,-1.7 -1.1,0 -2.2,-1 -2.6,-2.4 -0.3,-1.2 -0.6,-20.6 -0.4,-43 l 0.2,-40.7 3.9,-0.7 c 2.1,-0.3 4.4,-0.3 4.8,-0.1 0.6,0.6 9,0.9 18.7,1 z M 3.4,16.3 c 0,0.3 -0.6,1.6 -1.1,2.8 -0.9,1.5 -0.8,2.1 0,2.1 1.9,0 4.7,3.3 3.9,4.5 -0.3,0.6 -1.2,1.1 -1.8,1.1 -0.7,0 -0.8,-0.6 -0.3,-1.3 0.5,-0.8 0.3,-0.9 -0.6,-0.4 -0.7,0.4 -1,1.3 -0.7,1.9 0.4,0.6 0.1,1 -0.6,1 -0.7,0 -0.9,0.6 -0.4,1.2 0.4,0.9 1,0.8 1.7,-0.2 0.9,-1.5 1.5,-0.6 1.1,1.6 -0.1,0.6 0.3,0.7 1,0.2 0.7,-0.3 0.9,-1.1 0.7,-1.6 -0.3,-0.4 0,-1.5 0.6,-2.4 0.9,-1.5 1.2,-1.3 2.3,0.2 0.6,1.1 1.7,2 2.4,2 0.8,0 -0.3,-1.8 -2.5,-3.9 C 6,21.8 5.6,20.9 6.9,19.5 7.8,18.4 7.9,17.8 7,17.8 6.3,17.8 5.8,18.4 5.8,19 5.8,19.6 5.2,19.8 4.7,19.4 4,19 4.1,18.2 5,17.2 6.1,16.1 12.6,15.7 33.1,15.6 L 59.8,15.5 V 40.2 H 27 V 59.3 H 56.2 V 84.2 L 41.9,84 H 27.6 l -0.1,16.3 c -0.1,9 -0.6,16.9 -0.9,17.5 -0.4,0.7 -2,1 -3.6,0.8 -2.5,-0.4 -2.6,-0.2 -2,2.4 0.6,2 0.3,2.7 -0.6,2.1 -0.7,-0.5 -1.2,-0.2 -1.2,0.3 0,2.6 -2,1.1 -2.6,-1.8 -0.7,-3.7 0.1,-6.2 1.9,-5.2 0.7,0.3 0.2,-0.3 -1,-1.6 -1.3,-1.3 -3.3,-2 -4.7,-1.7 -2.2,0.4 -2.6,0 -2.6,-3.5 0,-2.7 -0.6,-4.2 -1.9,-4.6 -1.8,-0.7 -3.5,-1.6 -5.2,-2.5 L 0,101 V 58.9 C 0.1,35.8 0.4,16.6 0.8,16.3 c 0.9,-0.9 2.6,-0.9 2.6,0 z m 73.7,1.2 c -0.3,0.8 -0.1,1.5 0.4,1.5 0.6,0 1.2,-0.7 1.6,-1.6 0.6,-1.3 4,-1.6 19.2,-1.2 22.2,0.4 27.9,1.9 34.9,8.9 7.3,7.2 10,14.1 10,25 0.1,7.8 -0.4,10.1 -3.4,16.4 -3.6,7.6 -8.3,12.3 -14.7,14.5 -2.8,1 -3.4,1.6 -2.6,3 1.1,2 10.7,15.5 14.8,20.9 2.5,3.1 2.5,3.3 0.3,4.7 -1.1,0.8 -2.8,2 -3.5,2.7 -1.1,0.9 -1.5,0.8 -1.5,-0.4 0,-1 -0.8,-1.3 -2.2,-1 -1.6,0.4 -2.3,0 -2.3,-1.1 0,-2 -2,-2.9 -4.8,-2.1 -1.7,0.4 -2,1.3 -1.7,4.3 0.2,2.1 0,3.8 -0.4,3.8 -0.4,0 -0.9,-0.8 -0.9,-1.7 0,-0.9 -0.7,-1.7 -1.3,-1.7 -1.7,0 -4.3,-5.1 -4.3,-8.1 0,-2.5 -2.1,-2.7 -2.4,-0.3 -0.3,3.4 -0.4,3.8 -1.7,5.1 -0.9,0.9 -2.9,-1.7 -7.5,-9.4 -3.6,-5.8 -6.4,-11.1 -6.4,-11.8 0,-0.6 -0.6,-1.5 -1.2,-1.8 -0.8,-0.6 -1.1,3.9 -0.9,14.8 0.1,8.7 -0.1,16.3 -0.6,17 -0.6,0.9 -1.5,1 -2.7,0.3 -1,-0.4 -2.5,-0.7 -3.1,-0.4 -0.6,0.3 -1.6,-0.7 -1.9,-2.1 -0.4,-1.3 -1,-2.1 -1.3,-1.8 -0.5,0.4 -1.7,-0.2 -2.9,-1.5 -2.4,-2.4 -4.6,-2.7 -7.9,-0.9 -1.2,0.6 -3.1,0.8 -4.4,0.5 -2,-0.7 -2.1,-2.4 -2.1,-47.5 0,-25.8 0.2,-47.1 0.4,-47.6 0.2,-0.4 2.5,-0.7 5.1,-0.7 3.2,-0.1 4.3,0.3 3.9,1.3 z M 208,28 v 12.4 h -32 l 0.2,4.7 c 0.1,2.7 0.2,7 0.2,9.6 l 0.1,4.8 h 30.4 v 24.7 h -30.4 v 18.7 l 15.6,-0.3 15.5,-0.3 0.7,5.4 c 0.3,2.9 0.1,5.7 -0.4,6.4 -0.7,0.6 -1,0.2 -1,-0.9 0,-2.3 -3.9,-4 -7,-3.3 -1.2,0.2 -2,1.6 -2,3.1 0,3.1 -2.1,4.7 -3.5,2.6 -0.7,-1.1 -1,-1.2 -1,-0.2 0,0.8 -0.7,1.5 -1.6,1.5 -1,0 -1.3,0.8 -1,2.4 0.6,2 0.3,2.3 -1.8,1.6 -1.6,-0.4 -3.5,-0.1 -5.3,1.1 -3.6,2.4 -4.4,1.8 -4.8,-3.5 -0.1,-1.2 -0.8,-1.5 -2.4,-1 -1.5,0.4 -2.5,0.1 -2.9,-1.1 -0.6,-1.5 -0.9,-1.5 -2,-0.2 -0.7,0.9 -2.8,2.1 -4.8,2.8 -2.8,0.9 -3.7,0.9 -4.2,-0.5 -0.4,-1.1 -1.5,-1.5 -3,-1 -1.5,0.5 -3.1,0 -4.7,-1.3 -2.5,-2 -2.5,-2 -0.4,0.3 1.9,2.4 2.7,8.9 1,9.9 -0.4,0.2 -1.8,-0.2 -3,-1.1 -2.1,-1.6 -2.2,-3.3 -2.6,-55.4 L 149.6,16 178.9,15.9 208.1,15.8 Z M 94.5,52.7 v 13.5 l 3.7,-0.1 c 10.2,-0.2 17.1,-5.4 16.9,-12.9 -0.2,-9.6 -4.9,-13.9 -15,-13.9 h -5.6 z m 398,-34 c 10.6,4.7 16.9,12.8 19,24.1 1.2,7.1 0.2,17.3 -2.5,23.6 -2.1,5.3 -9,12 -14.5,14.4 l -4.4,1.8 9.1,12.9 9.2,12.8 -3.3,2.6 c -3.7,3 -5.1,3.3 -4,0.8 0.6,-1.6 0.3,-1.7 -1.8,-0.6 -1.3,0.8 -2.1,1.8 -1.8,2.5 0.4,0.6 0.2,1 -0.4,1 -0.7,0 -0.9,-1.3 -0.4,-3.4 0.6,-3.1 0.4,-3.4 -2.8,-3.4 -3.2,0 -3.5,0.2 -3.1,3.9 0.3,4.7 -1,4.6 -3.6,0 -1,-1.9 -2.3,-3.6 -2.7,-3.7 -0.6,-0.2 -0.9,-1.7 -0.9,-3.3 0,-3.5 -2.6,-2.9 -2.8,0.6 -0.4,6.4 -2.6,4.7 -9.9,-7.9 L 463.4,84.7 V 102 c 0,16 -0.1,17.2 -1.9,16.4 -1.1,-0.4 -2.9,-0.8 -3.9,-0.8 -1.1,0 -2,-0.7 -2,-1.6 0,-0.9 -0.8,-1.6 -1.7,-1.6 -0.8,0 -2,-0.8 -2.6,-1.7 -0.4,-1 -2.6,-1.9 -4.7,-2.2 -5.2,-0.7 -7.9,1.9 -7.9,7.5 0,2.4 -0.4,4.3 -1.1,4.3 -1.2,0 -1.7,-104.8 -0.4,-106 0.4,-0.3 11.9,-0.6 25.6,-0.3 22,0.3 25.2,0.6 29.7,2.7 z M 524.9,17 c 1,1 1.3,1 1.3,0 0,-0.9 2.2,-1.3 6.7,-1.3 5.5,0 6.5,0.3 6.1,1.7 -0.4,1.1 0,1.7 1.1,1.7 1,0 2.1,-0.8 2.5,-1.7 0.9,-2.2 2.7,-2.1 2.7,0.2 0,1.7 0.1,1.7 2,0 2.5,-2.2 7.1,-2.5 9,-0.6 0.8,0.8 1.3,0.9 1.3,0.2 0,-0.7 3.9,-1.1 9.6,-1.1 h 9.6 V 41 l -15.7,-0.3 -15.7,-0.3 v 19.2 h 30.4 v 24.7 h -30.4 v 18.6 l 15.6,-0.3 15.5,-0.3 0.7,5.4 c 0.7,6.1 0.1,7.4 -1.9,4.5 -2.7,-3.6 -8.5,-2 -8.5,2.3 0,2.5 -0.3,2.7 -2.9,2.1 -2.4,-0.7 -3,-0.3 -3.5,1.6 -0.4,1.7 -1.3,2.2 -3.1,2 -1.3,-0.1 -3.7,0.6 -5.4,1.7 -1.7,1.1 -3.1,1.6 -3.3,1.1 0,-0.6 -0.2,-1.5 -0.3,-2 -0.2,-0.7 -0.3,-1.8 -0.4,-2.6 -0.1,-1 -1.8,-1.3 -5.7,-1.2 -3,0.2 -5.6,0.7 -5.6,1.1 0,1.6 -3.9,1.7 -5.2,0.1 -0.8,-1 -2,-1.3 -3.6,-0.9 -1.9,0.7 -2.5,1.7 -2.5,4.7 0,3.8 -1.1,4.6 -4.8,3.1 -1.5,-0.6 -1.7,-7.6 -1.8,-50.6 -0.1,-35 0.1,-49.9 1,-49.9 0.8,0 0.9,-0.7 0,-2.1 -2,-3.9 -1.3,-6.9 1.5,-6.9 1.2,-0.2 2.9,0.4 3.7,1.2 z m -61.6,35.9 v 13.7 l 6.5,-0.8 c 11,-1.2 16.3,-7.9 13.7,-17.4 -1.7,-6.2 -6.2,-9.1 -14.3,-9.1 h -6 v 13.6 z"
         id="path1957"
         style="fill:#ffffff" /></g></g><style
     id="style1737">.st0{fill:#820ad1}</style><style
     id="style1953">.st0{fill:#e77817}</style></svg>
