<?xml version="1.0" encoding="UTF-8" standalone="no"?>
<!-- Created with Inkscape (http://www.inkscape.org/) -->

<svg
   width="1024.0px"
   height="1024.0px"
   viewBox="0 0 1024.0 1024.0"
   version="1.1"
   id="SVGRoot"
   sodipodi:docname="mobile_mode.svg"
   xml:space="preserve"
   inkscape:version="1.2.2 (b0a8486541, 2022-12-01)"
   xmlns:inkscape="http://www.inkscape.org/namespaces/inkscape"
   xmlns:sodipodi="http://sodipodi.sourceforge.net/DTD/sodipodi-0.dtd"
   xmlns="http://www.w3.org/2000/svg"
   xmlns:svg="http://www.w3.org/2000/svg"><sodipodi:namedview
     id="namedview14"
     pagecolor="#ffffff"
     bordercolor="#000000"
     borderopacity="0.25"
     inkscape:showpageshadow="2"
     inkscape:pageopacity="0.0"
     inkscape:pagecheckerboard="0"
     inkscape:deskcolor="#d1d1d1"
     inkscape:document-units="px"
     showgrid="true"
     inkscape:zoom="0.79394531"
     inkscape:cx="512"
     inkscape:cy="411.23739"
     inkscape:window-width="1920"
     inkscape:window-height="1016"
     inkscape:window-x="0"
     inkscape:window-y="0"
     inkscape:window-maximized="1"
     inkscape:current-layer="layer1"><inkscape:grid
       type="xygrid"
       id="grid20" /></sodipodi:namedview><defs
     id="defs9" /><g
     inkscape:label="Camada 1"
     inkscape:groupmode="layer"
     id="layer1"><rect
       style="fill:#ff0000;stroke:#ffffff;stroke-width:0.916413"
       id="rect533"
       width="1032.974"
       height="1102.0565"
       x="-3.8548193"
       y="-24.587917"
       rx="23.37426"
       ry="36.791405" /><text
       xml:space="preserve"
       style="font-style:normal;font-variant:normal;font-weight:800;font-stretch:normal;font-size:192px;font-family:'Martian Mono';-inkscape-font-specification:'Martian Mono Ultra-Bold';fill:#ffffff;stroke:#ffffff"
       x="109.95164"
       y="980.66278"
       id="text297"><tspan
         sodipodi:role="line"
         id="tspan295"
         x="109.95164"
         y="980.66278">mobile</tspan></text><path
       d="M 321.74691,106.83242 V 715.64234 H 702.25309 V 106.83242 Z M 283.69634,30.731216 H 740.3037 c 21.01538,0 38.05061,17.036011 38.05061,38.050594 v 684.91114 c 0,21.01534 -17.03525,38.05061 -38.05061,38.05061 H 283.69634 c -21.0146,0 -38.05065,-17.03527 -38.05065,-38.05061 V 68.78181 c 0,-21.014583 17.03605,-38.050594 38.05065,-38.050594 z m 228.3037,570.759244 c 21.01533,0 38.05059,17.03529 38.05059,38.05061 0,21.01536 -17.03527,38.05063 -38.05059,38.05063 -21.0154,0 -38.05063,-17.03527 -38.05063,-38.05063 0,-21.01532 17.03523,-38.05061 38.05063,-38.05061 z"
       id="path597"
       style="fill:#ffffff;stroke-width:38.0508" /></g></svg>
