<?xml version="1.0" encoding="UTF-8" standalone="no"?>
<!-- Created with Inkscape (http://www.inkscape.org/) -->

<svg
   width="1024.0px"
   height="1024.0px"
   viewBox="0 0 1024.0 1024.0"
   version="1.1"
   id="SVGRoot"
   sodipodi:docname="mobile_mode.svg"
   xml:space="preserve"
   inkscape:version="1.2.2 (b0a8486541, 2022-12-01)"
   xmlns:inkscape="http://www.inkscape.org/namespaces/inkscape"
   xmlns:sodipodi="http://sodipodi.sourceforge.net/DTD/sodipodi-0.dtd"
   xmlns="http://www.w3.org/2000/svg"
   xmlns:svg="http://www.w3.org/2000/svg"><sodipodi:namedview
     id="namedview14"
     pagecolor="#ffffff"
     bordercolor="#000000"
     borderopacity="0.25"
     inkscape:showpageshadow="2"
     inkscape:pageopacity="0.0"
     inkscape:pagecheckerboard="0"
     inkscape:deskcolor="#d1d1d1"
     inkscape:document-units="px"
     showgrid="true"
     inkscape:zoom="0.56140411"
     inkscape:cx="747.23357"
     inkscape:cy="610.07747"
     inkscape:window-width="1920"
     inkscape:window-height="1016"
     inkscape:window-x="0"
     inkscape:window-y="0"
     inkscape:window-maximized="1"
     inkscape:current-layer="layer1"><inkscape:grid
       type="xygrid"
       id="grid20" /></sodipodi:namedview><defs
     id="defs9" /><g
     inkscape:label="Camada 1"
     inkscape:groupmode="layer"
     id="layer1"><g
       aria-label="Mobile"
       id="text227"
       style="font-style:italic;font-weight:900;font-size:243.241px;font-family:Roboto;-inkscape-font-specification:'Roboto Heavy Italic';stroke:#ffffff;stroke-width:1.26688;fill:#ffffff"
       transform="matrix(0.8911894,0,0,0.8911894,55.298794,104.70259)"><path
         d="m 229.48558,812.57812 16.50903,119.95772 57.95977,-119.95772 h 54.15913 l -29.93005,172.92914 h -40.85688 l 7.36374,-42.40089 17.57796,-78.15068 -60.57271,120.55157 h -26.96079 l -19.59705,-125.06483 -10.92685,86.70212 -6.76989,38.36271 h -40.61934 l 29.93004,-172.92914 z"
         id="path279"
         style="fill:#ffffff" /><path
         d="m 427.95029,854.6227 q 17.22165,0.23754 29.81127,8.67021 12.58962,8.31391 18.40935,23.27893 5.9385,14.96502 4.27572,33.2556 l -0.23754,2.61294 q -3.32556,29.57374 -21.97245,47.74555 -18.64689,18.17181 -46.08277,17.69673 -17.10288,-0.23754 -29.57373,-8.43267 -12.47085,-8.3139 -18.52812,-23.16015 -5.9385,-14.84625 -4.27572,-33.01807 2.96925,-31.59282 21.61614,-50.35848 18.76566,-18.76567 46.55785,-18.29059 z m -29.09866,68.64907 -0.35631,7.00743 q -1.66278,26.48572 16.15272,26.9608 23.04139,0.71262 26.72326,-37.41256 l 0.47508,-10.80807 q 0.23754,-10.6893 -4.03818,-16.98411 -4.15695,-6.41358 -12.35208,-6.65112 -10.80808,-0.35631 -17.81551,8.90775 -6.88866,9.14529 -8.78898,28.97988 z"
         id="path281"
         style="fill:#ffffff" /><path
         d="m 613.58783,921.49022 q -3.68187,31.23652 -18.40935,49.17079 -14.72748,17.93427 -38.71903,17.34042 -19.0032,-0.47508 -29.21742,-15.91518 l -4.86957,13.42101 h -35.39347 l 31.7116,-182.43074 h 39.07533 l -12.70839,64.49212 q 12.94593,-13.18348 28.86111,-12.94594 18.88444,0.23754 29.45497,13.53979 10.57053,13.18347 11.16438,35.98731 0.11877,7.60128 -0.59385,14.84625 z m -38.8378,-2.3754 q 0.95016,-7.24497 1.06893,-13.77732 0,-19.12197 -13.65855,-19.95336 -12.11454,-0.47508 -20.30967,10.33299 l -9.26406,51.30865 q 3.68187,9.85791 16.15272,10.09545 19.12197,0.59385 24.11031,-24.9417 l 1.66278,-10.57054 z"
         id="path283"
         style="fill:#ffffff" /><path
         d="m 661.92724,985.50726 h -39.1941 L 645.0619,856.9981 h 39.19411 z M 648.50623,824.57389 q -0.23754,-8.67021 6.05727,-14.48994 6.41358,-5.81973 15.4401,-5.81973 9.1453,0 15.20257,5.22588 6.17604,5.22588 6.41358,13.65855 0.23754,8.78898 -6.05727,14.60871 -6.29481,5.70096 -15.44011,5.70096 -8.90775,0 -15.20256,-5.10711 -6.17604,-5.22588 -6.41358,-13.77732 z"
         id="path285"
         style="fill:#ffffff" /><path
         d="M 727.96338,985.50726 H 688.76927 L 720.36209,803.07652 H 759.5562 Z"
         id="path287"
         style="fill:#ffffff" /><path
         d="m 816.68458,987.88266 q -17.22165,-0.11877 -30.76143,-8.07636 -13.42101,-8.07636 -20.30968,-22.32876 -6.88866,-14.37117 -5.46342,-31.59283 l 0.35631,-3.32556 q 3.20679,-31.71159 21.97246,-50.12094 18.88443,-18.52813 46.20153,-17.81551 16.50904,0.23754 28.26727,8.43267 11.75823,8.07637 17.22165,22.44754 5.46342,14.2524 3.5631,32.0679 l -2.25663,16.2715 h -76.48789 q 0.23754,10.09545 5.70096,16.39026 5.46342,6.29481 15.91518,6.65112 16.98412,0.47508 30.5239,-13.0647 l 16.39026,21.73491 q -7.24497,10.33299 -20.30967,16.27149 -12.94594,5.81973 -28.38604,6.05727 z m 9.5016,-102.49852 q -8.3139,-0.23754 -14.48994,5.22588 -6.05727,5.46342 -10.57053,18.29058 h 39.07534 l 0.71262,-3.44433 q 0.71262,-4.15695 0.23754,-7.83882 -2.01909,-11.877 -14.96503,-12.23331 z"
         id="path289"
         style="fill:#ffffff" /></g><path
       d="M 321.74689,114.32085 V 723.13077 H 702.25308 V 114.32085 Z M 283.69632,38.219652 h 456.60737 c 21.0154,0 38.05062,17.036011 38.05062,38.050594 V 761.18138 c 0,21.01534 -17.03526,38.05061 -38.05062,38.05061 H 283.69632 c -21.0146,0 -38.05063,-17.03527 -38.05063,-38.05061 V 76.270246 c 0,-21.014583 17.03604,-38.050594 38.05063,-38.050594 z m 228.3037,570.759238 c 21.01533,0 38.05059,17.03529 38.05059,38.05061 0,21.01536 -17.03527,38.05063 -38.05059,38.05063 -21.0154,0 -38.05063,-17.03527 -38.05063,-38.05063 0,-21.01532 17.03523,-38.05061 38.05063,-38.05061 z"
       id="path597"
       style="fill:#ffffff;stroke-width:38.0508" /></g></svg>
