<?xml version="1.0" encoding="UTF-8" standalone="no"?>
<!-- Created with Inkscape (http://www.inkscape.org/) -->

<svg
   width="512.0px"
   height="512.0px"
   viewBox="0 0 512.0 512.0"
   version="1.1"
   id="SVGRoot"
   sodipodi:docname="nubank.svg"
   inkscape:version="1.2.2 (b0a8486541, 2022-12-01)"
   xml:space="preserve"
   xmlns:inkscape="http://www.inkscape.org/namespaces/inkscape"
   xmlns:sodipodi="http://sodipodi.sourceforge.net/DTD/sodipodi-0.dtd"
   xmlns="http://www.w3.org/2000/svg"
   xmlns:svg="http://www.w3.org/2000/svg"><sodipodi:namedview
     id="namedview564"
     pagecolor="#ffffff"
     bordercolor="#000000"
     borderopacity="0.25"
     inkscape:showpageshadow="2"
     inkscape:pageopacity="0.0"
     inkscape:pagecheckerboard="0"
     inkscape:deskcolor="#d1d1d1"
     inkscape:document-units="px"
     showgrid="true"
     inkscape:zoom="1.5878906"
     inkscape:cx="259.46371"
     inkscape:cy="212.54613"
     inkscape:window-width="1920"
     inkscape:window-height="1016"
     inkscape:window-x="0"
     inkscape:window-y="0"
     inkscape:window-maximized="1"
     inkscape:current-layer="layer1"><inkscape:grid
       type="xygrid"
       id="grid570" /></sodipodi:namedview><defs
     id="defs559" /><g
     inkscape:label="Camada 1"
     inkscape:groupmode="layer"
     id="layer1"><g
       id="g871"
       transform="matrix(0.95393552,0,0,0.95393552,17.49909,28.575291)"><path
         id="path2"
         class="st0"
         d="M 90.3,26.3 C 106.1,9.7 127,0 151.7,0 c 48,0 79.8,35 85.9,87.5 2,17.1 2,41.1 1.9,68.9 v 113 h -66 v -77.1 c 0,0 -0.1,-66 -0.5,-78.4 -1.8,-53.7 -33.6,-87.5 -82.7,-87.6 -14.9,15.8 -22.8,34.9 -24,64.2 -0.2,4.1 -0.1,18.6 -0.1,37.6 0,9.9 0.1,21 0.1,32.6 V 269.5 H 0.3 V 150.8 c 0,-4.1 -0.1,-8.2 -0.1,-12.3 -0.1,-8.3 -0.3,-16.6 0.1,-24.9 0.7,-13.8 3.1,-27.4 9.6,-40 14.7,-28.8 44.9,-47.4 77,-47.4 1.1,0 2.2,0.1 3.4,0.1 z" /><path
         id="path4"
         class="st0"
         d="m 499.7,162.3 c 0.4,-8.3 0.3,-16.6 0.1,-24.9 -0.1,-4.1 -0.1,-8.2 -0.1,-12.3 V 6.4 h -66 v 108.8 c 0,11.6 0,22.7 0.1,32.6 0.1,19.1 0.1,33.6 -0.1,37.6 -1.2,29.3 -9.1,48.4 -23.9,64.1 -49.1,0 -81,-33.8 -82.7,-87.5 -0.4,-12.3 -0.6,-43 -0.6,-78.4 V 6.3 l -66,0.1 v 113 c 0,27.8 0,51.9 1.9,68.9 6.1,52.5 37.9,87.5 85.9,87.5 24.6,0 45.6,-9.7 61.4,-26.3 1.1,0 2.2,0.1 3.4,0.1 32.2,0 62.3,-18.6 77,-47.4 6.5,-12.6 8.9,-26.1 9.6,-39.9 z" /></g></g><style
     id="style859">.st0{fill:#820ad1}</style></svg>
