<?xml version="1.0" encoding="UTF-8" standalone="no"?>
<!-- Created with Inkscape (http://www.inkscape.org/) -->

<svg
   width="512.0px"
   height="512.0px"
   viewBox="0 0 512.0 512.0"
   version="1.1"
   id="SVGRoot"
   sodipodi:docname="santander_logo.svg"
   xml:space="preserve"
   inkscape:version="1.2.2 (b0a8486541, 2022-12-01)"
   xmlns:inkscape="http://www.inkscape.org/namespaces/inkscape"
   xmlns:sodipodi="http://sodipodi.sourceforge.net/DTD/sodipodi-0.dtd"
   xmlns="http://www.w3.org/2000/svg"
   xmlns:svg="http://www.w3.org/2000/svg"><sodipodi:namedview
     id="namedview14"
     pagecolor="#ffffff"
     bordercolor="#000000"
     borderopacity="0.25"
     inkscape:showpageshadow="2"
     inkscape:pageopacity="0.0"
     inkscape:pagecheckerboard="0"
     inkscape:deskcolor="#d1d1d1"
     inkscape:document-units="px"
     showgrid="true"
     inkscape:zoom="1.5878906"
     inkscape:cx="255.68512"
     inkscape:cy="256"
     inkscape:window-width="1920"
     inkscape:window-height="1016"
     inkscape:window-x="0"
     inkscape:window-y="0"
     inkscape:window-maximized="1"
     inkscape:current-layer="g1967"><inkscape:grid
       type="xygrid"
       id="grid20" /></sodipodi:namedview><defs
     id="defs9">
	
</defs><g
     inkscape:label="Camada 1"
     inkscape:groupmode="layer"
     id="layer1"><g
       style="image-rendering:optimizeQuality;shape-rendering:geometricPrecision;text-rendering:geometricPrecision"
       id="g1967"
       transform="matrix(0.81697448,0,0,0.81697448,16.966868,204.8672)"><path
         id="Layer"
         style="stroke-width:1.22403"
         class="s0"
         d="m 492.95107,-343.9783 11.02343,778.83112 z m -202.13921,147.69385 -2.44806,4.16217 c -3.42726,5.99774 -5.99821,12.36269 -7.83426,18.97245 -1.71363,6.73214 -2.6919,13.58576 -2.6919,20.44031 0,6.97697 0.97827,13.83296 2.6919,20.44271 1.83605,6.73215 4.407,13.09663 7.83426,19.09437 l 45.65722,78.949827 c 3.42728,5.99774 5.99582,12.36223 7.83187,19.09437 1.71364,6.6097504 2.6943,13.4633604 2.6943,20.4403204 0,6.8545496 -0.98066,13.7110396 -2.6943,20.3207796 -1.83605,6.73216 -4.40459,13.09663 -7.83187,19.09437 l -2.44805,4.16217 c -0.40802,-2.12164 -0.93939,-4.20441 -1.5922,-6.24445 -0.57121,-2.04005 -1.22355,-4.03739 -1.95797,-5.995829 -0.73441,-2.040051 -1.55043,-3.999451 -2.44805,-5.876291 -0.89762,-1.95845 -1.87732,-3.83482 -2.93815,-5.63006 l -41.73889,-72.21768 -26.68478,-46.022988 c -1.06082,-1.79523 -2.04052,-3.674 -2.93814,-5.63244 -0.89762,-1.958439 -1.71365,-3.915459 -2.44806,-5.873899 -0.81602,-1.95845 -1.50868,-3.95817 -2.07989,-5.99822 -0.57121,-2.04004 -1.05987,-4.12042 -1.46788,-6.24207 l -2.44806,4.16218 c -3.42727,5.87533 -6.12062,12.3627 -7.83426,18.972439 -1.83604,6.60975 -2.69429,13.46384 -2.69429,20.31839 -0.1224,6.85456 0.85873,13.708168 2.57237,20.440318 1.71364,6.60975 4.28267,12.97471 7.70994,18.97244 l 45.77914,79.19608 c 3.42728,5.99773 6.12015,12.36221 7.95619,19.09436 1.71364,6.60975 2.56998,13.46336 2.56998,20.44032 0,6.85454 -0.85634,13.71056 -2.56998,20.442713 -1.83604,6.60974 -4.52891,12.97471 -7.95619,18.97244 l -2.44805,4.15979 c -0.40801,-2.12166 -0.89667,-4.20203 -1.46788,-6.24207 -0.57121,-2.04005 -1.22595,-4.03977 -1.96036,-5.99822 -0.73442,-1.95844 -1.59076,-3.91546 -2.56998,-5.8739 -0.89762,-1.87685 -1.87732,-3.75322 -2.93815,-5.63005 L 220.06206,5.0682274 c -1.87684,-3.26407 -3.50889,-6.6088 -4.89611,-10.03608 -1.46884,-3.50888 -2.60983,-7.0600004 -3.42585,-10.6504804 -0.89762,-3.67208 -1.50963,-7.34418 -1.83604,-11.01626 -0.40801,-3.75368 -0.49105,-7.50642 -0.24624,-11.2601 -61.07896,16.03475 -103.06225,49.69464 -103.06225,88.98591 0,54.469223 81.39704,98.534293 182.01208,98.534293 100.61504,0 182.13639,-44.06507 182.13639,-98.534293 -0.2448,-39.29127 -42.47337,-72.95116 -103.55233,-88.98591 -0.1632,-3.10087 -0.49056,-6.24398 -0.98017,-9.42646 -0.48961,-3.10087 -1.18228,-6.16095 -2.0799,-9.18021 -0.89762,-3.01927 -1.95797,-5.99631 -3.18199,-8.933968 -1.22403,-2.93767 -2.61174,-5.79374 -4.16218,-8.5682 l -57.03924,-98.534289 c -1.06083,-1.87684 -2.04053,-3.75321 -2.93815,-5.63005 -0.89762,-1.95845 -1.71364,-3.91785 -2.44806,-5.8763 -0.73441,-1.95843 -1.42947,-3.95817 -2.08228,-5.99821 -0.57121,-2.04005 -1.05987,-4.12043 -1.46788,-6.24207 z" /><g
         id="g3421"
         transform="matrix(0.36265336,0,0,0.36265336,12.105612,79.253442)"
         style="fill:#ec0000;fill-opacity:1"><path
           style="stroke-width:1.22403;fill:#ec0000;fill-opacity:1"
           d="m 1546.8654,336.26641 q 0,4.0393 -0.1224,8.0786 -0.2448,4.03929 -0.612,8.07858 -0.4896,4.0393 -1.1016,8.07859 -0.7345,3.91689 -1.5913,7.95619 -3.4273,-0.36721 -6.9769,-0.73442 -3.5497,-0.24481 -7.0994,-0.36721 -3.5497,-0.24481 -7.0994,-0.36721 -3.5497,0 -7.0993,0 -3.5497,0 -6.977,0.1224 -3.4273,0.12241 -6.8546,0.36721 -3.5496,0.24481 -6.9769,0.61202 -3.4273,0.36721 -6.8546,0.85682 v 146.2714 h -37.5777 V 344.46741 c 16.0348,-5.63053 43.0858,-9.42502 64.2615,-9.42502 q 4.0393,-0.12241 8.201,-0.12241 4.0393,0 8.201,0.12241 4.0393,0.2448 8.0786,0.48961 4.1617,0.2448 8.201,0.73441 z"
           id="path3408" /><path
           style="stroke-width:1.22403;fill:#ec0000;fill-opacity:1"
           d="m 1415.2823,442.02248 h -120.0771 c 4.8961,30.60071 22.6445,45.04424 56.0605,45.04424 q 7.7113,0.12241 15.4227,-0.73441 7.7114,-0.85682 15.3004,-2.44806 7.5889,-1.71364 14.9331,-4.1617 7.3442,-2.44806 14.4436,-5.63053 c -1.4689,9.91463 -3.4273,23.01174 -5.753,34.15039 -17.2588,7.71138 -35.252,10.89386 -55.5709,10.89386 -63.0374,0 -93.2709,-34.88481 -93.2709,-93.27097 0,-50.91958 23.5013,-91.31253 83.3563,-91.31253 53.6124,0 76.869,35.12962 76.869,78.21543 q 0.1224,3.67208 0.1224,7.34417 0,3.67208 -0.2448,7.34417 -0.2448,3.67208 -0.612,7.34417 -0.3672,3.67208 -0.9793,7.22177 z m -120.6892,-31.21273 h 84.8252 c 0,-28.03025 -15.0555,-44.30983 -41.0049,-44.30983 -26.6839,-0.24481 -40.7602,15.30036 -43.8203,44.30983 z"
           id="path3406" /><path
           style="stroke-width:1.22403;fill:#ec0000;fill-opacity:1"
           d="m 1226.1699,276.16661 v 239.05277 h -34.3952 l -1.9584,-21.78771 c -9.6698,16.03477 -24.2358,25.9494 -48.9611,25.9494 -45.0443,0 -75.1554,-32.68156 -75.1554,-90.21089 0,-59.9774 32.192,-94.12779 95.4742,-94.12779 q 3.5497,0 7.0994,0.1224 3.5497,0.1224 7.0994,0.48961 3.4272,0.36721 6.9769,0.85682 3.5497,0.48961 6.977,1.10163 v -56.42772 c 11.1387,-4.03929 24.4806,-5.01852 36.8432,-5.01852 z m -37.088,199.51665 V 370.66162 q -3.6721,-0.85682 -7.4666,-1.46884 -3.6721,-0.61201 -7.4666,-0.97922 -3.7944,-0.48961 -7.5889,-0.73442 -3.7945,-0.2448 -7.589,-0.2448 c -37.2105,0 -54.9589,23.25654 -54.9589,62.18064 0,34.88481 14.0763,59.36538 47.4923,59.36538 q 5.1409,0 10.037,-0.97922 5.0186,-0.85682 9.7923,-2.44806 4.7737,-1.71364 9.3026,-4.16169 4.4065,-2.32566 8.4458,-5.50813 z"
           id="path3404" /><path
           style="stroke-width:1.22403;fill:#ec0000;fill-opacity:1"
           d="M 1035.3439,400.40551 V 515.21938 H 997.88858 V 406.89286 c 0,-26.80622 -9.0578,-39.90333 -46.6354,-39.90333 q -3.6721,0 -7.4666,0.24481 -3.6721,0.1224 -7.4666,0.48961 -3.6721,0.36721 -7.4666,0.85682 -3.672,0.48961 -7.3441,1.10162 v 145.53699 h -37.5777 V 344.46741 c 23.991,-5.87534 50.1852,-9.42502 68.3008,-9.42502 63.03742,-0.24481 83.11152,24.23576 83.11152,65.36312 z"
           id="path3402" /><path
           style="stroke-width:1.22403;fill:#ec0000;fill-opacity:1"
           d="m 842.92658,344.46741 v 170.75197 h -34.3952 l -1.9584,-20.56368 c -9.6698,15.05555 -24.2358,24.72537 -48.2267,24.72537 -45.0443,0 -75.1554,-32.68156 -75.1554,-90.21089 0,-59.9774 32.192,-94.12779 95.4742,-94.12779 q 8.201,-0.24481 16.2796,0.2448 8.201,0.48961 16.2796,1.59124 8.0786,1.22403 16.0348,3.06007 7.9562,1.95845 15.6675,4.52891 z m -37.5776,131.70546 V 368.94798 q -3.3049,-0.61202 -6.7322,-0.97923 -3.3049,-0.3672 -6.6097,-0.61201 -3.4273,-0.24481 -6.8546,-0.36721 -3.3049,-0.1224 -6.7322,0 c -39.0465,0 -57.1621,23.99096 -57.1621,62.18065 0,34.88481 14.0763,59.36538 47.4923,59.36538 q 4.8961,0.1224 9.7922,-0.73442 4.8962,-0.73442 9.5475,-2.32565 4.6513,-1.59124 9.0578,-3.9169 4.2841,-2.32565 8.201,-5.38572 z"
           id="path3400" /><path
           style="stroke-width:1.22403;fill:#ec0000;fill-opacity:1"
           d="m 641.20678,487.31153 q 3.7944,0.1224 7.4665,-0.24481 3.7945,-0.2448 7.4666,-0.97922 3.6721,-0.61201 7.3442,-1.59124 3.5497,-0.97922 7.0993,-2.20325 c -0.9792,10.15944 -2.448,21.78771 -4.4065,31.70234 q -3.7945,1.46883 -7.7113,2.57046 -3.9169,1.10162 -7.8338,1.71364 -4.0393,0.73441 -8.0786,1.10162 -4.0393,0.24481 -8.0786,0.24481 c -36.5985,0 -59.85499,-16.76919 -59.85499,-58.38616 V 281.67474 q 4.5289,-1.34643 9.18021,-2.44806 4.65131,-0.97922 9.42498,-1.71364 4.6513,-0.73441 9.4251,-1.10162 4.7737,-0.24481 9.5474,-0.24481 v 64.62871 h 59.3654 q -0.2448,4.0393 -0.4897,8.07859 -0.3672,4.03929 -0.7344,8.07859 -0.4896,4.03929 -0.9792,8.07859 -0.612,4.03929 -1.224,7.95618 h -55.9381 v 83.84595 c 0,21.78771 10.8938,30.47831 29.0095,30.47831 z"
           id="path3398" /><path
           style="stroke-width:1.22403;fill:#ec0000;fill-opacity:1"
           d="M 537.04191,400.40551 V 515.21938 H 499.46424 V 406.89286 c 0,-26.80622 -8.93541,-39.90333 -46.51308,-39.90333 q -3.79449,0 -7.58898,0.24481 -3.67208,0.1224 -7.46657,0.48961 -3.67208,0.36721 -7.34417,0.85682 -3.79449,0.48961 -7.46657,1.10162 V 515.21938 H 385.50719 V 344.46741 c 23.99096,-5.87534 50.18517,-9.42502 68.42319,-9.42502 62.67026,-0.24481 83.11153,24.23576 83.11153,65.36312 z"
           id="path3396" /><path
           style="stroke-width:1.22403;fill:#ec0000;fill-opacity:1"
           d="m 344.25743,344.46741 v 170.75197 h -34.39519 l -1.95845,-20.56368 c -9.66982,15.05555 -24.23576,24.72537 -48.22672,24.72537 -45.04425,0 -75.15535,-32.68156 -75.15535,-90.21089 0,-59.9774 32.31435,-94.12779 95.59662,-94.12779 24.23577,-0.24481 44.55464,2.57046 64.13909,9.42502 z M 306.67976,476.17287 V 368.94798 q -3.30488,-0.61202 -6.60975,-0.97923 -3.42728,-0.3672 -6.73216,-0.61201 -3.42728,-0.24481 -6.73215,-0.36721 -3.42728,-0.1224 -6.73216,0 c -39.04651,0 -57.28453,23.99096 -57.28453,62.18065 0,34.88481 14.07632,59.36538 47.4923,59.36538 q 5.01852,0.1224 9.79223,-0.73442 4.89611,-0.73442 9.54742,-2.32565 4.77371,-1.59124 9.05781,-3.9169 4.4065,-2.32565 8.20099,-5.38572 z"
           id="path3394" /><path
           style="stroke-width:1.22403;fill:#ec0000;fill-opacity:1"
           d="m 2.753496,507.7528 q 0.1224,-4.4065 0.61201,-8.813 0.48962,-4.4065 1.34644,-8.6906 0.73441,-4.2841 1.95844,-8.5682 1.10163,-4.2841 2.57046,-8.3234 7.46657,3.18248 15.05555,5.63053 7.71138,2.44806 15.54516,4.1617 7.95619,1.71364 15.91237,2.57046 8.07859,0.85682 16.03477,0.97922 c 31.824744,0 49.695564,-10.28184 49.695564,-30.60071 0,-19.82926 -13.09711,-29.00947 -45.044254,-43.0858 l -17.5036,-7.46657 c -32.19195,-14.07633 -53.97966,-32.31435 -53.97966,-68.4232 0,-38.9241 26.92863,-63.89429 82.37711,-63.89429 q 7.95619,-0.1224 15.912374,0.48962 7.95619,0.61201 15.78997,1.83604 7.83378,1.22403 15.54516,3.18247 7.83378,1.83605 15.30036,4.40651 -0.24481,4.4065 -0.85682,8.6906 -0.48961,4.4065 -1.34643,8.6906 -0.85682,4.2841 -2.08085,8.4458 -1.10163,4.16169 -2.44806,8.32339 -6.73215,-2.32566 -13.70912,-4.1617 -6.85456,-1.83604 -13.95392,-3.06007 -6.97696,-1.22403 -14.07633,-1.95844 -7.099364,-0.61202 -14.321134,-0.73442 c -29.74389,0 -43.33061,11.62827 -43.33061,29.74389 0,17.74842 13.34191,28.15266 37.33287,38.3121 l 18.36043,7.71138 c 43.453014,18.48283 61.568634,38.06728 61.568634,70.99365 0,39.29131 -29.74389,66.46474 -87.762844,66.46474 -28.27506,0.24481 -51.4092,-3.91689 -70.50404,-12.8523 z"
           id="path3392" /></g></g></g><style
     id="style1737">.st0{fill:#820ad1}</style><style
     id="style1953">.st0{fill:#e77817}</style><style
     type="text/css"
     id="style2">
	.st0{fill:#EA1D25;}
</style><style
     type="text/css"
     id="style2-3">
	.st0{fill:#EA1D25;}
</style><style
     id="style3059">
		.s0 { fill: #ec0000 } 
	</style><style
     id="style3187">
		.s0 { fill: #ec0000 } 
	</style></svg>
